<svg width="205" height="58" viewBox="0 0 205 58" fill="none" xmlns="http://www.w3.org/2000/svg">
<g clip-path="url(#clip0_357_196)">
<path d="M26.17 20.2C26.9709 19.652 27.8213 19.1799 28.71 18.79C28.6707 18.7336 28.6236 18.6831 28.57 18.64C28.4728 18.5876 28.3726 18.5409 28.27 18.5C26.9848 17.9753 25.8527 17.1347 24.9787 16.0562C24.1047 14.9777 23.517 13.696 23.27 12.33C22.9758 10.995 22.9783 9.61171 23.2772 8.27777C23.5762 6.94384 24.1643 5.69178 25 4.60999C25.16 4.38999 25.2 4.27999 25 4.06999C23.9235 2.94117 22.6313 2.04003 21.2 1.41999C19.4581 0.670447 17.5945 0.243518 15.7 0.159993C12.18 -0.0500072 8.78 0.309993 5.7 2.15999C3.76085 3.28451 2.27798 5.05404 1.51 7.15999C0.982172 8.59058 0.807223 10.1274 1 11.64C1.1008 12.6967 1.41089 13.7228 1.91221 14.6585C2.41352 15.5942 3.09605 16.4207 3.92 17.09C4.78346 17.7676 5.74874 18.3042 6.78 18.68C6.69 18.92 6.48 18.93 6.31 19C4.87811 19.5187 3.58864 20.3676 2.54617 21.4778C1.5037 22.588 0.7376 23.9283 0.31 25.39C0.262817 25.9556 0.158963 26.5151 0 27.06L0 27.91C0.0737695 28.1885 0.0737695 28.4815 0 28.76L0 29.52C0.13 29.59 0.09 29.71 0.1 29.81C0.230587 31.2346 0.65313 32.6171 1.34131 33.8713C2.02948 35.1255 2.96855 36.2245 4.1 37.1C6.06699 38.5878 8.39209 39.5295 10.84 39.83C13.8666 40.3237 16.9652 40.1358 19.91 39.28C21.7604 38.7516 23.469 37.8154 24.91 36.54C25.13 36.34 25.19 36.24 24.96 35.99C23.1642 34.004 22.1606 31.4274 22.14 28.75C22.0096 27.1019 22.3098 25.4483 23.011 23.9512C23.7122 22.4541 24.7905 21.1649 26.14 20.21M8.95 8.71999C9.4056 7.98195 10.0326 7.36475 10.7777 6.92082C11.5228 6.47688 12.3641 6.21931 13.23 6.16999C13.5631 6.1508 13.8969 6.1508 14.23 6.16999C15.3961 6.09173 16.5615 6.33379 17.6 6.86999C18.2855 7.2089 18.8753 7.71406 19.3155 8.33939C19.7556 8.96473 20.0322 9.69032 20.12 10.45C20.3124 11.3219 20.2852 12.2279 20.0408 13.0867C19.7965 13.9454 19.3426 14.73 18.72 15.37C18.0261 16.0453 17.1441 16.495 16.19 16.66C14.3088 17.1328 12.3194 16.898 10.6 16C9.91815 15.6042 9.35001 15.0391 8.95058 14.3593C8.55115 13.6796 8.33395 12.9083 8.32 12.12C8.1805 10.9587 8.40038 9.78249 8.95 8.74999M21.25 28.47C21.2177 29.4531 20.9224 30.4096 20.3947 31.2398C19.8671 32.0699 19.1264 32.7434 18.25 33.19C17.2229 33.7142 16.0926 34.0045 14.94 34.04C13.2825 34.1923 11.6174 33.844 10.16 33.04C9.3494 32.5963 8.66572 31.9526 8.1739 31.1703C7.68208 30.3879 7.39847 29.4928 7.35 28.57C7.22475 27.7443 7.28544 26.901 7.52764 26.1017C7.76985 25.3024 8.18746 24.5673 8.75 23.95C9.61792 23.0746 10.7236 22.4731 11.93 22.22C12.6061 22.0429 13.3012 21.9489 14 21.94C15.6979 21.8434 17.3862 22.2541 18.85 23.12C19.7222 23.6801 20.4144 24.4799 20.8437 25.4235C21.2729 26.3671 21.4209 27.4144 21.27 28.44" fill="#B71C1C"/>
<path d="M71.18 22.57C70.0154 20.9728 68.4247 19.7356 66.59 19C66.41 18.92 66.18 18.91 66.08 18.69C66.08 18.69 66.08 18.63 66.14 18.62L66.62 18.43C68.4318 17.7427 69.9412 16.4352 70.88 14.74C71.4513 13.637 71.7916 12.429 71.88 11.19C72.0434 9.46808 71.7176 7.73499 70.94 6.18999C70.0457 4.4446 68.6536 3.0038 66.94 2.04999C65.2874 1.09814 63.4556 0.498891 61.56 0.289993C58.6337 -0.135251 55.6491 0.107482 52.83 0.999993C50.9683 1.58031 49.2784 2.61072 47.91 3.99999C47.7 4.21999 47.66 4.34999 47.91 4.61999C48.8602 5.83221 49.4834 7.26801 49.72 8.78999C49.9184 10.0944 49.8675 11.4246 49.57 12.71C49.2039 14.3819 48.3014 15.8884 47 17C46.2538 17.625 45.4178 18.1341 44.52 18.51C44.43 18.51 44.28 18.56 44.27 18.7C44.26 18.84 44.42 18.84 44.51 18.89C44.87 19.08 45.24 19.24 45.59 19.44C46.7173 20.011 47.7175 20.8041 48.5303 21.7716C49.3432 22.7392 49.9519 23.8611 50.32 25.07C51.0185 27.469 50.9415 30.0273 50.1 32.38C49.6275 33.7293 48.8743 34.9632 47.89 36C47.72 36.18 47.65 36.3 47.89 36.49C49.1737 37.6547 50.6809 38.5461 52.32 39.11C54.6451 39.8828 57.0924 40.2217 59.54 40.11C62.5638 40.0974 65.5232 39.2346 68.08 37.62C69.7707 36.5186 71.1076 34.9526 71.93 33.11C72.5525 31.6807 72.8758 30.139 72.88 28.58C72.9944 26.4483 72.4002 24.3386 71.19 22.58M54.25 7.57999C55.268 6.66865 56.5837 6.16017 57.95 6.14999C59.0023 6.05514 60.063 6.15342 61.08 6.43999C62.0524 6.71975 62.9125 7.29787 63.5387 8.09274C64.1649 8.8876 64.5256 9.85907 64.57 10.87C64.57 11.09 64.57 11.31 64.62 11.53C64.68 12.364 64.5215 13.1992 64.1603 13.9532C63.799 14.7073 63.2475 15.3541 62.56 15.83C61.9429 16.2696 61.2359 16.5667 60.49 16.7C58.9981 17.0139 57.4499 16.9311 56 16.46C55.1235 16.1892 54.347 15.6647 53.7685 14.9527C53.1901 14.2408 52.8356 13.3733 52.75 12.46C52.5703 11.5859 52.6155 10.6806 52.8814 9.8288C53.1473 8.97701 53.625 8.20667 54.27 7.58999M65.67 28.22C65.6641 28.9999 65.4956 29.7699 65.1753 30.4811C64.8551 31.1922 64.3901 31.8287 63.81 32.35C62.8217 33.2161 61.5947 33.7633 60.29 33.92C58.5071 34.2513 56.666 34.0459 55 33.33C54.1409 32.9841 53.3876 32.4188 52.8155 31.6905C52.2434 30.9623 51.8726 30.0966 51.74 29.18C51.5494 28.3661 51.5311 27.5213 51.6861 26.6999C51.841 25.8785 52.166 25.0985 52.64 24.41C53.488 23.3216 54.6852 22.5588 56.03 22.25C56.8964 21.9983 57.7989 21.8935 58.7 21.94C60.2071 21.8549 61.7051 22.2242 63 23C63.8878 23.536 64.6052 24.3129 65.069 25.2405C65.5328 26.168 65.7238 27.2082 65.62 28.24" fill="#B71C1C"/>
<path d="M31.92 28.06L36.62 21.65L41.32 28.06L36.61 34.47L31.91 28.06" fill="#EEEFF0"/>
<path d="M31.26 8.29999V7.89999C31.2932 7.82921 31.32 7.75558 31.34 7.67999C31.4058 7.17524 31.6285 6.7039 31.9766 6.33249C32.3247 5.96108 32.7806 5.70836 33.28 5.60999C33.8805 5.48998 34.5039 5.57688 35.0487 5.85653C35.5935 6.13619 36.0275 6.59211 36.28 7.14999C36.41 7.40999 36.52 7.67999 36.63 7.92999C36.8624 7.44652 37.1263 6.97884 37.42 6.52999C37.7459 6.11252 38.1916 5.80456 38.6974 5.64729C39.2031 5.49003 39.7448 5.49097 40.25 5.64999C40.7368 5.79449 41.1668 6.0867 41.4803 6.4862C41.7938 6.8857 41.9754 7.37276 42 7.87999C42.0437 8.72387 41.812 9.55911 41.34 10.26C40.7 11.26 39.99 12.18 39.34 13.12C38.2838 14.4006 37.4398 15.8422 36.84 17.39C36.84 17.48 36.77 17.57 36.71 17.72C36.3466 16.5216 35.767 15.3998 35 14.41L33.53 12.41C32.61 11.14 31.53 9.96999 31.27 8.32999" fill="#EEEFF0"/>
<path d="M78.0601 27.9H86.0601C86.0601 30.96 87.5901 32.28 90.0601 32.28C92.5301 32.28 93.8901 30.8 93.8901 28.89C93.8901 22.54 78.8901 21.78 78.8901 10.12C78.8801 4.27 83.0001 0 90.0001 0C97.0001 0 101.33 4.21 101.33 11.27H93.3301C93.3301 8.75 92.1801 7.49 89.9401 7.49C87.9401 7.49 86.7101 8.58 86.7101 10.34C86.7101 16.34 101.92 16.74 101.92 28.94C101.92 35.23 97.4901 39.83 89.9201 39.83C82.6601 39.83 78.0601 35.62 78.0601 27.9Z" fill="#EEEFF0"/>
<path d="M127.25 8.14999H119.75V39.07H111.75V8.14999H104.25V0.769989H127.25V8.14999Z" fill="#EEEFF0"/>
<path d="M143 32.72H134.9L133.64 39.07H125.64L134.78 0.769989H143.1L152.29 39.07H144.29L143 32.72ZM141.47 25.33L140.58 21C140.09 18.26 139.43 13.61 139.05 10.49H138.83C138.45 13.61 137.83 18.26 137.3 21L136.42 25.38L141.47 25.33Z" fill="#EEEFF0"/>
<path d="M166.19 26.21H163.45V39.07H155.68V0.769989H166.79C174.4 0.769989 178.88 5.47999 178.88 13.52C178.88 18.72 176.96 22.52 173.57 24.57L180.79 39.07H172.31L166.19 26.21ZM163.45 18.82H166.68C169.42 18.82 170.89 16.96 170.89 13.51C170.89 10.06 169.41 8.14999 166.68 8.14999H163.45V18.82Z" fill="#EEEFF0"/>
<path d="M204.94 31.68V39.07H183V33.87L195.15 8.14999H183.93V0.769989H204.67V6.12999L192.67 31.68H204.94Z" fill="#EEEFF0"/>
<path d="M2.58997 47.79H4.20997V57.25H2.58997V47.79Z" fill="#EEEFF0"/>
<path d="M16.09 51.35H17.69V55.9C17.0972 56.3873 16.419 56.7603 15.69 57C14.9159 57.2557 14.1053 57.3841 13.29 57.38C12.1818 57.3982 11.0872 57.1332 10.11 56.61C9.18999 56.1152 8.42241 55.3788 7.89002 54.48C7.36059 53.547 7.08228 52.4927 7.08228 51.42C7.08228 50.3473 7.36059 49.2929 7.89002 48.36C8.42146 47.4569 9.19356 46.7195 10.12 46.23C11.1083 45.7076 12.2123 45.4428 13.33 45.46C14.1984 45.4487 15.0608 45.6049 15.87 45.92C16.6109 46.2119 17.2747 46.6704 17.81 47.26L16.81 48.26C16.365 47.8211 15.8368 47.4756 15.2563 47.2437C14.6759 47.0119 14.0549 46.8984 13.43 46.91C12.598 46.8948 11.7757 47.0909 11.04 47.48C10.3486 47.8485 9.77369 48.4026 9.38002 49.08C8.98583 49.7825 8.7788 50.5745 8.7788 51.38C8.7788 52.1855 8.98583 52.9775 9.38002 53.68C9.76092 54.3612 10.3212 54.9249 11 55.31C11.7274 55.703 12.5434 55.9027 13.37 55.89C14.3337 55.9117 15.2827 55.651 16.1 55.14L16.09 51.35Z" fill="#EEEFF0"/>
<path d="M27 55H21.92L20.92 57.25H19.34L23.67 47.79H25.27L29.62 57.25H28L27 55ZM26.43 53.72L24.43 49.26L22.43 53.72H26.43Z" fill="#EEEFF0"/>
<path d="M40.44 57.25V50.69L37.18 56.12H36.43L33.17 50.84V57.25H31.59V47.79H33L36.83 54.15L40.59 47.79H42V57.25H40.44Z" fill="#EEEFF0"/>
<path d="M45.29 47.79H46.9V57.25H45.29V47.79Z" fill="#EEEFF0"/>
<path d="M58.61 47.79V57.25H57.2799L51.82 50.57V57.25H50.2V47.79H51.5299L57 54.5V47.79H58.61Z" fill="#EEEFF0"/>
<path d="M68.51 52.47H70.08V56.17C69.5945 56.5756 69.0338 56.8814 68.43 57.07C67.7845 57.2823 67.1094 57.3903 66.43 57.39C65.5015 57.4046 64.584 57.1881 63.76 56.76C62.9893 56.3544 62.3441 55.7461 61.894 55.0006C61.4439 54.2551 61.2061 53.4008 61.2061 52.53C61.2061 51.6592 61.4439 50.8049 61.894 50.0594C62.3441 49.3139 62.9893 48.7056 63.76 48.3C64.5704 47.874 65.4745 47.6574 66.39 47.67C67.0946 47.6232 67.8009 47.7314 68.4592 47.9871C69.1175 48.2428 69.7117 48.6398 70.2 49.15L69.2 50.15C68.8469 49.7787 68.4195 49.4862 67.9456 49.2914C67.4717 49.0967 66.962 49.0042 66.45 49.02C65.8158 49.01 65.1895 49.1614 64.63 49.46C64.1002 49.7435 63.6602 50.1695 63.36 50.69C63.0495 51.2349 62.8906 51.853 62.9 52.48C62.8923 53.1005 63.0511 53.7117 63.36 54.25C63.6623 54.7749 64.1058 55.2044 64.64 55.49C65.2117 55.7954 65.8518 55.9502 66.5 55.94C67.2227 55.9598 67.9365 55.7761 68.56 55.41L68.51 52.47Z" fill="#EEEFF0"/>
<path d="M78.4399 45.59H83.3499C84.4859 45.5674 85.6108 45.8177 86.6299 46.32C87.5519 46.7799 88.3225 47.4949 88.8499 48.38C89.3693 49.309 89.642 50.3556 89.642 51.42C89.642 52.4844 89.3693 53.531 88.8499 54.46C88.3225 55.3451 87.5519 56.0601 86.6299 56.52C85.6108 57.0223 84.4859 57.2726 83.3499 57.25H78.4399V45.59ZM83.2499 55.8C84.112 55.8185 84.9659 55.6299 85.7399 55.25C86.43 54.9073 87.0065 54.3725 87.3999 53.71C87.7824 53.0073 87.9828 52.22 87.9828 51.42C87.9828 50.62 87.7824 49.8327 87.3999 49.13C87.0065 48.4675 86.43 47.9327 85.7399 47.59C84.9693 47.1963 84.1153 46.9939 83.2499 47H80.0999V55.8H83.2499Z" fill="#EEEFF0"/>
<path d="M99.56 55.9V57.25H92.46V47.79H99.37V49.12H94.07V51.78H98.78V53.1H94.08V55.9H99.56Z" fill="#EEEFF0"/>
<path d="M104 47V51.1H109.85V52.53H104V57.24H102.33V45.59H110.56V47H104Z" fill="#EEEFF0"/>
<path d="M112.49 47.79H114.11V57.25H112.49V47.79Z" fill="#EEEFF0"/>
<path d="M130.87 46.67C131.286 47.0513 131.618 47.5148 131.845 48.0313C132.072 48.5477 132.19 49.1058 132.19 49.67C132.19 50.2342 132.072 50.7922 131.845 51.3087C131.618 51.8251 131.286 52.2887 130.87 52.67C129.849 53.4403 128.587 53.823 127.31 53.75H124.43V57.28H122.76V45.59H127.31C128.587 45.517 129.849 45.8997 130.87 46.67ZM129.67 51.59C129.933 51.3397 130.142 51.0387 130.285 50.7052C130.427 50.3718 130.501 50.0128 130.501 49.65C130.501 49.2872 130.427 48.9282 130.285 48.5947C130.142 48.2613 129.933 47.9603 129.67 47.71C128.964 47.2159 128.11 46.9794 127.25 47.04H124.42V52.27H127.25C128.111 52.3277 128.965 52.0876 129.67 51.59Z" fill="#EEEFF0"/>
<path d="M134.72 47.79H136.34V55.9H141.42V57.25H134.72V47.79Z" fill="#EEEFF0"/>
<path d="M150.32 55H145.24L144.24 57.25H142.66L147 47.79H148.6L152.95 57.25H151.3L150.32 55ZM149.75 53.72L147.75 49.26L145.75 53.72H149.75Z" fill="#EEEFF0"/>
<path d="M155.75 49.12H152.52V47.79H160.6V49.12H157.37V57.25H155.75V49.12Z" fill="#EEEFF0"/>
<path d="M164.23 49.12V52.2H168.94V53.53H164.23V57.24H162.61V47.79H169.52V49.12H164.23Z" fill="#EEEFF0"/>
<path d="M173.56 56.75C172.792 56.3421 172.15 55.7328 171.702 54.9877C171.254 54.2425 171.017 53.3894 171.017 52.52C171.017 51.6506 171.254 50.7975 171.702 50.0523C172.15 49.3072 172.792 48.6979 173.56 48.29C174.376 47.8739 175.279 47.6569 176.195 47.6569C177.111 47.6569 178.014 47.8739 178.83 48.29C179.598 48.6979 180.24 49.3072 180.688 50.0523C181.136 50.7975 181.372 51.6506 181.372 52.52C181.372 53.3894 181.136 54.2425 180.688 54.9877C180.24 55.7328 179.598 56.3421 178.83 56.75C178.014 57.1662 177.111 57.3831 176.195 57.3831C175.279 57.3831 174.376 57.1662 173.56 56.75ZM178 55.53C178.523 55.2413 178.959 54.8162 179.26 54.3C179.559 53.7545 179.716 53.1423 179.716 52.52C179.716 51.8977 179.559 51.2855 179.26 50.74C178.96 50.2201 178.525 49.7915 178 49.5C177.446 49.2041 176.828 49.0493 176.2 49.0493C175.572 49.0493 174.954 49.2041 174.4 49.5C173.877 49.7887 173.441 50.2138 173.14 50.73C172.84 51.2752 172.682 51.8876 172.682 52.51C172.682 53.1324 172.84 53.7448 173.14 54.29C173.441 54.8066 173.876 55.2317 174.4 55.52C174.954 55.8159 175.572 55.9707 176.2 55.9707C176.828 55.9707 177.446 55.8159 178 55.52V55.53Z" fill="#EEEFF0"/>
<path d="M190.25 57.25L188.25 54.42H187.82H185.57V57.23H183.95V47.79H187.81C188.882 47.7206 189.945 48.0323 190.81 48.67C191.167 48.9668 191.451 49.3427 191.638 49.7678C191.826 50.193 191.912 50.6559 191.89 51.12C191.91 51.7782 191.721 52.4258 191.35 52.97C190.964 53.4998 190.427 53.9007 189.81 54.12L192 57.25H190.25ZM189.56 52.6C189.773 52.4123 189.943 52.1815 190.06 51.9229C190.177 51.6642 190.237 51.3837 190.237 51.1C190.237 50.8162 190.177 50.5357 190.06 50.2771C189.943 50.0185 189.773 49.7877 189.56 49.6C189.014 49.2192 188.354 49.0358 187.69 49.08H185.54V53.08H187.69C188.346 53.1336 189.002 52.9645 189.55 52.6H189.56Z" fill="#EEEFF0"/>
<path d="M203.41 57.25V50.69L200.15 56.12H199.4L196.14 50.84V57.25H194.59V47.79H195.97L199.8 54.15L203.56 47.79H204.96V57.25H203.41Z" fill="#EEEFF0"/>
</g>
<defs>
<clipPath id="clip0_357_196">
<rect width="204.96" height="57.38" fill="white"/>
</clipPath>
</defs>
</svg>
