<svg width="50" height="50" viewBox="0 0 50 50" fill="none" xmlns="http://www.w3.org/2000/svg">
<g clip-path="url(#clip0_367_3121)">
<path d="M25 0C11.25 0 0 11.25 0 25C0 38.75 11.25 50 25 50C38.75 50 50 38.75 50 25V22.5C48.5 24.75 47 26.75 45.75 28.5C44.75 34 41.75 38.75 37.5 42C37.25 41.25 37 40.25 36.75 39.5C36.5 38.5 36.25 37.5 35.75 36.5C35.5 35.5 35.25 34.5 34.75 33.75C34.5 33.5 34 33.25 33.5 33C31.75 32.5 29.5 33.25 28.25 31.5C27.75 30.75 27.75 30 28 29C28.5 28.25 28.75 27.5 29.25 26.75C29.75 25.75 30.5 24.5 30.75 23.25C28.75 20.25 26.75 16.75 25.75 13.5H25.5C25.25 13.5 25.25 13.5 25 13.25C24.5 12.75 24.25 11.5 24.5 10.75C24.5 9.5 25.25 8.75 25 7.5C25 7.25 24.75 5.25 24.75 5.25C24 5.25 22.75 5.25 23 4V3.75H25H26.25C26.75 2.25 27.75 1 28.5 0H25ZM40 0C34.5 0 30 4.5 30 10C30 15.5 40 27.5 40 27.5C40 27.5 50 15.5 50 10C50 4.5 45.5 0 40 0ZM40 6.25C42 6.25 43.75 8 43.75 10C43.75 12 42 13.75 40 13.75C38 13.75 36.25 12 36.25 10C36.25 8 38 6.25 40 6.25ZM15 7.75C16 7.75 16.75 7.75 17.5 8C18.25 8.25 19 8.75 19.5 9.25C20 9.75 20.75 10.5 20.75 11.25C20.75 11.5 20.75 11.75 20.5 11.75C20.25 12 20 12 19.75 12C19 12 18.25 12 17.75 11.75C17.5 11.5 17 11 16.5 10.75C15.25 10.25 13 13.5 12.75 14.5C12.5 15.25 12.5 17 13.75 17.25C14.5 17.25 16.25 15.75 16.75 15.25C17.25 15 17.5 14.75 18 14.5C20 14.25 21.5 16 22 17.75C22.5 19.75 19 21.25 17.5 21.75C17 22 16.75 21.5 16.25 21.75C15 22.25 13.5 24 13.5 25.25C13.5 26.5 13.25 27.75 13 29C12.75 29 12.5 28.75 12.5 28.75V28.25C12.5 27.5 12.25 26.75 11.5 26.25C11.25 26.25 11.25 26 11 26C10.25 25.75 9.5 25 8.75 25.75C8.25 26.25 7.75 27 7.75 27.75C7.75 28 7.75 28.25 8 28.5C8.5 28.75 9 28.5 9.5 28.5C9.75 28.5 10 29 10.25 29.25C10.75 30 11 31.25 12 31.25H13.75H17C17.75 31.5 19 31.75 19.5 32.25C19.75 32.75 19.75 33.25 20 33.75C21 35 22.75 35 24.25 35.5C24.75 35.75 25 36 25 36.5C25 37.25 24.75 38.25 24.5 39C24.25 39.75 24 40.75 23.5 41.25C23 41.75 22.5 42 22 42.25C21 42.75 20.5 43.75 20 44.5C20 44.5 19.75 45 19.5 45.25C17.5 44.75 15.75 44 14 42.75V42.25C13.75 41.25 13.5 40.5 13.25 39.75C12.75 38.5 12 37 11.75 35.75C11.75 34.5 12 33.25 11.25 32.25C10.5 31 8.5 31 7.25 30.25C6.25 29.25 5 28.25 4 27V25C4 18.25 7.25 12.25 12.25 8.25C13.25 8 14 7.75 15 7.75Z" fill="#EF9B08"/>
</g>
<defs>
<clipPath id="clip0_367_3121">
<rect width="50" height="50" fill="white"/>
</clipPath>
</defs>
</svg>
