<svg width="20" height="20" viewBox="0 0 20 20" fill="none" xmlns="http://www.w3.org/2000/svg">
<path fill-rule="evenodd" clip-rule="evenodd" d="M14.7094 10.5494L11.1744 14.0875C10.93 14.3312 10.5344 14.3312 10.2906 14.0875C10.0462 13.8375 10.0462 13.4437 10.2906 13.2L12.8662 10.625H6.25C5.90438 10.625 5.625 10.345 5.625 10C5.625 9.65438 5.90438 9.375 6.25 9.375H12.8662L10.2906 6.79939C10.0462 6.55502 10.0462 6.15877 10.2906 5.91564C10.5344 5.67127 10.93 5.67127 11.1744 5.91564L14.7094 9.45061C14.8594 9.60061 14.9063 9.80563 14.8719 10C14.9063 10.1944 14.8594 10.3994 14.7094 10.5494ZM17.5 0H2.5C1.11937 0 0 1.11937 0 2.5V17.5C0 18.8813 1.11937 20 2.5 20H17.5C18.8806 20 20 18.8813 20 17.5V2.5C20 1.11937 18.8806 0 17.5 0Z" fill="#EF9B08"/>
</svg>
