<svg width="50" height="50" viewBox="0 0 50 50" fill="none" xmlns="http://www.w3.org/2000/svg">
<path d="M39.2802 21.8676L39.1752 21.5001L39.0002 21.2901L38.7902 21.0451C38.6432 20.8916 38.4666 20.7694 38.2711 20.6859C38.0756 20.6025 37.8653 20.5594 37.6527 20.5594C37.4401 20.5594 37.2298 20.6025 37.0343 20.6859C36.8388 20.7694 36.6622 20.8916 36.5152 21.0451L36.3052 21.2901L36.1652 21.5701C36.1577 21.6749 36.1577 21.7802 36.1652 21.8851C36.1494 21.9895 36.1494 22.0957 36.1652 22.2001C36.1596 22.4092 36.1953 22.6173 36.2702 22.8126C36.3519 23.0085 36.4708 23.1868 36.6202 23.3376C36.7667 23.4922 36.9461 23.6118 37.1452 23.6876C37.3459 23.7669 37.5594 23.8084 37.7752 23.8101H38.0902L38.4052 23.7051L38.6852 23.5651C38.7492 23.4687 38.7965 23.3622 38.8252 23.2501C38.9798 23.1036 39.0995 22.9242 39.1752 22.7251C39.2561 22.531 39.2977 22.3228 39.2977 22.1126C39.2966 22.0306 39.2907 21.9488 39.2802 21.8676Z" fill="#EF9B08"/>
<path d="M42.5001 15.41L42.3951 15.095L42.2551 14.815L42.0451 14.5C41.8981 14.3465 41.7215 14.2244 41.526 14.1409C41.3305 14.0574 41.1201 14.0144 40.9076 14.0144C40.695 14.0144 40.4847 14.0574 40.2892 14.1409C40.0937 14.2244 39.9171 14.3465 39.7701 14.5L39.5601 14.745L39.4201 15.025C39.4126 15.1299 39.4126 15.2352 39.4201 15.34C39.4042 15.4444 39.4042 15.5506 39.4201 15.655C39.4145 15.8641 39.4502 16.0722 39.5251 16.2675C39.6068 16.4635 39.7256 16.6418 39.8751 16.7925C40.0216 16.9472 40.201 17.0668 40.4001 17.1425C40.6007 17.2219 40.8143 17.2634 41.0301 17.265H41.3451L41.6601 17.16L41.9401 17.02C42.0323 16.9633 42.1149 16.8924 42.1851 16.81C42.3397 16.6636 42.4593 16.4841 42.5351 16.285C42.5567 16.0978 42.5448 15.9082 42.5001 15.725C42.5078 15.6202 42.5078 15.5149 42.5001 15.41Z" fill="#EF9B08"/>
<path d="M34.4327 7.32515L34.3277 7.01014L34.1877 6.73015L33.9777 6.48515C33.8307 6.33163 33.6541 6.20946 33.4586 6.126C33.2631 6.04254 33.0528 5.99951 32.8402 5.99951C32.6276 5.99951 32.4173 6.04254 32.2218 6.126C32.0263 6.20946 31.8497 6.33163 31.7027 6.48515L31.4927 6.73015L31.3527 7.01014C31.3452 7.11501 31.3452 7.22028 31.3527 7.32515C31.3369 7.42955 31.3369 7.53574 31.3527 7.64015C31.3471 7.84923 31.3828 8.05735 31.4577 8.25264C31.5394 8.44859 31.6583 8.62687 31.8077 8.77765C31.9542 8.93227 32.1336 9.0519 32.3327 9.12764C32.5334 9.20697 32.7469 9.2485 32.9627 9.25015H33.2777L33.5927 9.14515L33.7502 8.98765C33.8424 8.93092 33.925 8.86005 33.9952 8.77765C34.1498 8.63116 34.2695 8.45172 34.3452 8.25264C34.4261 8.05857 34.4677 7.8504 34.4677 7.64015C34.4639 7.53442 34.4522 7.42913 34.4327 7.32515Z" fill="#EF9B08"/>
<path d="M27.9575 13.7825L27.8525 13.4675L27.7125 13.1875L27.5025 12.9425C27.3555 12.789 27.1789 12.6669 26.9834 12.5834C26.7879 12.4999 26.5776 12.4569 26.365 12.4569C26.1525 12.4569 25.9421 12.4999 25.7466 12.5834C25.5511 12.6669 25.3745 12.789 25.2275 12.9425L25 13.205L24.86 13.485C24.8525 13.5899 24.8525 13.6952 24.86 13.8C24.8442 13.9044 24.8442 14.0106 24.86 14.115C24.8545 14.3241 24.8901 14.5323 24.965 14.7275C25.0467 14.9235 25.1656 15.1018 25.315 15.2525C25.4615 15.4072 25.641 15.5268 25.84 15.6025C26.0407 15.6819 26.2543 15.7234 26.47 15.725H26.785L27.1 15.62L27.38 15.48C27.4722 15.4233 27.5549 15.3525 27.625 15.27C27.7797 15.1236 27.8993 14.9441 27.975 14.745C28.0559 14.551 28.0975 14.3428 28.0975 14.1325C28.0613 14.012 28.0144 13.8949 27.9575 13.7825Z" fill="#EF9B08"/>
<path d="M18.2627 7.32516L18.1577 7.01016L18.0002 6.74766L17.7902 6.50266C17.6432 6.34915 17.4666 6.22698 17.2711 6.14352C17.0756 6.06006 16.8653 6.01703 16.6527 6.01703C16.4401 6.01703 16.2298 6.06006 16.0343 6.14352C15.8388 6.22698 15.6622 6.34915 15.5152 6.50266L15.3052 6.74766L15.1652 7.02766C15.1577 7.13253 15.1577 7.2378 15.1652 7.34266C15.1494 7.44707 15.1494 7.55326 15.1652 7.65766C15.1596 7.86674 15.1953 8.07487 15.2702 8.27016C15.3519 8.46611 15.4708 8.64439 15.6202 8.79516C15.7667 8.94979 15.9461 9.06942 16.1452 9.14516C16.3459 9.22448 16.5594 9.26602 16.7752 9.26766H17.0902L17.4052 9.16266L17.6852 9.02266C17.7774 8.96594 17.86 8.89507 17.9302 8.81266C18.0848 8.66618 18.2045 8.48674 18.2802 8.28766C18.3611 8.09358 18.4027 7.88541 18.4027 7.67516C18.3664 7.5546 18.3196 7.43747 18.2627 7.32516Z" fill="#EF9B08"/>
<path d="M27.66 39.7351C27.7213 39.4677 27.7133 39.1892 27.6368 38.9258C27.5602 38.6624 27.4176 38.4229 27.2225 38.2301L11.245 22.2351C11.0511 22.0383 10.8098 21.8946 10.5444 21.818C10.2789 21.7414 9.99818 21.7344 9.72922 21.7977C9.46026 21.861 9.21212 21.9924 9.00866 22.1793C8.8052 22.3663 8.65328 22.6024 8.56751 22.8651L0.500011 46.8576C0.401395 47.143 0.385041 47.4504 0.452817 47.7447C0.520593 48.039 0.669767 48.3083 0.883301 48.5218C1.09684 48.7353 1.36612 48.8845 1.6604 48.9523C1.95468 49.0201 2.26209 49.0037 2.54751 48.9051L26.5225 40.9076C26.7995 40.8314 27.051 40.6825 27.251 40.4763C27.451 40.2702 27.5922 40.0142 27.66 39.7351ZM14.6575 41.4851L8.00751 34.8176L8.88251 32.1926L17.3 40.6101L14.6575 41.4851ZM6.85251 38.2476L11.2275 42.6226L4.66501 44.8101L6.85251 38.2476ZM20.7125 39.4726L10.02 28.7626L10.8075 26.3826L23.0575 38.6326L20.7125 39.4726Z" fill="#EF9B08"/>
<path d="M30.6876 22.9351L31.4401 18.5426L35.8326 17.7901C36.1601 17.7335 36.4621 17.577 36.697 17.342C36.932 17.107 37.0886 16.8051 37.1451 16.4776L37.8976 12.0851L42.2901 11.3326C42.4992 11.2969 42.6993 11.2205 42.8789 11.1075C43.0585 10.9946 43.214 10.8474 43.3367 10.6743C43.4594 10.5013 43.5468 10.3057 43.5939 10.0989C43.6411 9.89205 43.647 9.67795 43.6114 9.46882C43.5757 9.25969 43.4993 9.05962 43.3863 8.88004C43.2734 8.70046 43.1262 8.54489 42.9531 8.4222C42.7801 8.29951 42.5845 8.21211 42.3777 8.16499C42.1708 8.11787 41.9567 8.11195 41.7476 8.14757L36.2351 9.09257C35.9076 9.14913 35.6057 9.30565 35.3707 9.54064C35.1357 9.77563 34.9792 10.0776 34.9226 10.4051L34.1701 14.7976L29.7776 15.5501C29.4501 15.6066 29.1482 15.7631 28.9132 15.9981C28.6782 16.2331 28.5217 16.5351 28.4651 16.8626L27.7126 21.2551L23.2501 22.0251C22.8434 22.0843 22.4746 22.2968 22.2195 22.6191C21.9644 22.9414 21.8423 23.349 21.8781 23.7585C21.9139 24.168 22.1049 24.5483 22.4121 24.8214C22.7193 25.0946 23.1193 25.2399 23.5301 25.2276H23.8101L29.3226 24.2826C29.6646 24.2341 29.9819 24.0769 30.2277 23.8343C30.4735 23.5916 30.6347 23.2764 30.6876 22.9351Z" fill="#EF9B08"/>
<path d="M48.4501 24.7726L43.7951 23.0226C43.4342 22.8852 43.0359 22.882 42.6729 23.0137C42.3099 23.1454 42.0063 23.4032 41.8176 23.7401L40.0676 26.8726L36.7076 25.6126C36.3467 25.4752 35.9484 25.472 35.5854 25.6037C35.2224 25.7354 34.9188 25.9932 34.7301 26.3301L32.9801 29.4451L29.6201 28.1851C29.4213 28.1116 29.2099 28.0779 28.9981 28.086C28.7863 28.0941 28.5782 28.1439 28.3857 28.2325C28.1931 28.321 28.0199 28.4467 27.8758 28.6022C27.7318 28.7577 27.6198 28.9401 27.5463 29.1388C27.4728 29.3376 27.4391 29.549 27.4472 29.7608C27.4554 29.9726 27.5051 30.1807 27.5937 30.3732C27.6823 30.5658 27.8079 30.739 27.9634 30.8831C28.1189 31.0271 28.3013 31.1391 28.5001 31.2126L33.1551 32.9626C33.5159 33.1 33.9142 33.1032 34.2772 32.9715C34.6402 32.8398 34.9438 32.582 35.1326 32.2451L36.8826 29.1126L40.2426 30.3726C40.6034 30.51 41.0017 30.5132 41.3647 30.3815C41.7277 30.2498 42.0313 29.992 42.2201 29.6551L43.9701 26.5226L47.3301 27.7826C47.5288 27.8573 47.7404 27.8921 47.9526 27.885C48.1649 27.8779 48.3736 27.8291 48.567 27.7414C48.7604 27.6536 48.9346 27.5287 49.0797 27.3736C49.2248 27.2185 49.3379 27.0364 49.4126 26.8376C49.4872 26.6388 49.5221 26.4273 49.515 26.215C49.5079 26.0028 49.4591 25.794 49.3714 25.6006C49.2836 25.4073 49.1586 25.2331 49.0036 25.088C48.8485 24.9429 48.6663 24.8298 48.4676 24.7551L48.4501 24.7726Z" fill="#EF9B08"/>
<path d="M22.4451 16.2501L21.2201 12.8726L24.3526 11.1226C24.6886 10.9371 24.9473 10.6377 25.0821 10.2784C25.2169 9.91898 25.2188 9.52329 25.0876 9.1626L23.8801 5.7501L27.0126 4.0001C27.3885 3.79357 27.667 3.44615 27.7868 3.03427C27.9066 2.62239 27.8579 2.1798 27.6513 1.80385C27.4448 1.42791 27.0974 1.14941 26.6855 1.02962C26.2736 0.909832 25.831 0.958567 25.4551 1.1651L21.1151 3.6151C20.7791 3.80057 20.5203 4.09998 20.3856 4.45935C20.2508 4.81872 20.2489 5.21442 20.3801 5.5751L21.6051 8.9351L18.4726 10.6851C18.1366 10.8706 17.8778 11.17 17.7431 11.5294C17.6083 11.8887 17.6064 12.2844 17.7376 12.6451L18.9626 16.0226L15.8126 17.7726C15.6264 17.8749 15.4623 18.0128 15.3294 18.1785C15.1966 18.3442 15.0977 18.5345 15.0383 18.7384C14.9186 19.1503 14.9673 19.5929 15.1738 19.9689C15.3804 20.3448 15.7278 20.6233 16.1397 20.7431C16.5515 20.8629 16.9941 20.8141 17.3701 20.6076L21.7276 18.2101C22.0605 18.0219 22.3155 17.7213 22.447 17.3621C22.5784 17.003 22.5778 16.6088 22.4451 16.2501Z" fill="#EF9B08"/>
<path d="M10.2126 13.9227C10.009 13.9811 9.81905 14.079 9.65345 14.2109C9.48785 14.3429 9.3499 14.5062 9.24749 14.6915C9.14508 14.8768 9.08023 15.0805 9.05665 15.2909C9.03307 15.5013 9.05122 15.7143 9.11006 15.9177L9.77506 18.2102C9.87308 18.5429 10.0759 18.835 10.3534 19.0432C10.6309 19.2513 10.9682 19.3642 11.3151 19.3652C11.4659 19.3869 11.6192 19.3869 11.7701 19.3652C11.9736 19.3068 12.1636 19.2088 12.3292 19.0769C12.4948 18.9449 12.6327 18.7817 12.7351 18.5963C12.8375 18.411 12.9024 18.2073 12.926 17.9969C12.9496 17.7865 12.9314 17.5735 12.8726 17.3702L12.2076 15.0777C12.1548 14.8694 12.0609 14.6738 11.9314 14.5024C11.8019 14.331 11.6394 14.1873 11.4535 14.0796C11.2676 13.972 11.062 13.9027 10.8489 13.8757C10.6358 13.8487 10.4194 13.8647 10.2126 13.9227Z" fill="#EF9B08"/>
<path d="M22.6551 30.6877C22.9876 30.6867 23.3116 30.5827 23.5826 30.3902L24.5276 29.7252C24.7011 29.6022 24.8487 29.4463 24.9619 29.2663C25.0752 29.0863 25.1519 28.8858 25.1876 28.6762C25.2234 28.4666 25.2175 28.2519 25.1703 28.0446C25.1231 27.8372 25.0355 27.6412 24.9126 27.4677C24.7896 27.2942 24.6337 27.1466 24.4537 27.0333C24.2737 26.9201 24.0732 26.8434 23.8636 26.8077C23.6539 26.7719 23.4393 26.7778 23.232 26.825C23.0246 26.8722 22.8286 26.9597 22.6551 27.0827L21.7101 27.7477C21.4244 27.9426 21.209 28.2242 21.0958 28.551C20.9827 28.8778 20.9777 29.2324 21.0818 29.5622C21.1858 29.892 21.3933 30.1796 21.6735 30.3823C21.9537 30.585 22.2918 30.6921 22.6376 30.6877H22.6551Z" fill="#EF9B08"/>
<path d="M15.9875 22.4101C15.6861 22.7119 15.5168 23.121 15.5168 23.5476C15.5168 23.9741 15.6861 24.3832 15.9875 24.6851L16.6525 25.3501C16.7995 25.5096 16.9773 25.6377 17.1751 25.7268C17.3729 25.8159 17.5866 25.8641 17.8035 25.8685C18.0204 25.873 18.236 25.8335 18.4372 25.7525C18.6385 25.6715 18.8213 25.5507 18.9747 25.3973C19.1281 25.2439 19.2489 25.0611 19.3299 24.8598C19.4109 24.6586 19.4503 24.443 19.4459 24.2261C19.4415 24.0092 19.3933 23.7955 19.3042 23.5977C19.2151 23.3999 19.087 23.2221 18.9275 23.0751L18.2625 22.4101C17.9606 22.1087 17.5515 21.9395 17.125 21.9395C16.6984 21.9395 16.2893 22.1087 15.9875 22.4101Z" fill="#EF9B08"/>
<path d="M33.75 38.7376H34.03C34.2425 38.7503 34.4555 38.7209 34.6568 38.6512C34.858 38.5816 35.0435 38.4729 35.2028 38.3316C35.362 38.1902 35.4919 38.0188 35.5849 37.8273C35.6779 37.6357 35.7323 37.4277 35.745 37.2151C35.7576 37.0025 35.7283 36.7896 35.6586 36.5883C35.5889 36.3871 35.4803 36.2016 35.3389 36.0423C35.1975 35.883 35.0262 35.7532 34.8346 35.6602C34.643 35.5671 34.435 35.5128 34.2225 35.5001L30.25 34.8876C30.0408 34.852 29.8267 34.8579 29.6199 34.905C29.4131 34.9522 29.2175 35.0396 29.0445 35.1622C28.8714 35.2849 28.7242 35.4405 28.6112 35.6201C28.4983 35.7997 28.4218 35.9997 28.3862 36.2089C28.3506 36.418 28.3565 36.6321 28.4036 36.8389C28.4508 37.0458 28.5382 37.2413 28.6608 37.4144C28.7835 37.5875 28.9391 37.7347 29.1187 37.8476C29.2983 37.9605 29.4983 38.037 29.7075 38.0726L33.75 38.7376Z" fill="#EF9B08"/>
</svg>
