<svg width="50" height="50" viewBox="0 0 50 50" fill="none" xmlns="http://www.w3.org/2000/svg">
<g clip-path="url(#clip0_367_2318)">
<path fill-rule="evenodd" clip-rule="evenodd" d="M45.7 23.1576C44.6298 23.1576 43.56 23.5593 42.754 24.3652L37.8647 29.2578C37.3232 28.403 36.4803 27.7365 35.4396 27.4577L23.8999 24.3652C22.9802 24.1188 22.0292 24.0725 21.1069 24.2122C20.1846 24.3521 19.2919 24.6777 18.4864 25.1856L11.2827 29.7298L10.7 28.7175C9.97432 27.4606 8.3078 27.0152 7.0509 27.7409L1.57238 30.9017C0.31548 31.6274 -0.129849 33.2939 0.595818 34.5508L8.75988 48.6882C9.48555 49.9451 11.1488 50.3936 12.4057 49.668L17.8842 46.5039C19.1411 45.7782 19.5897 44.1117 18.864 42.8548L18.7565 42.666L21.8783 40.5567L33.3627 42.8158C34.9365 43.1252 36.3434 42.6861 37.4642 41.5397C41.1684 37.751 44.8773 33.9794 48.6393 30.2669C48.6427 30.2647 48.646 30.2625 48.6494 30.2603C50.2612 28.6484 50.2612 25.9769 48.6494 24.3651C47.8434 23.5592 46.7702 23.1576 45.7 23.1576ZM45.7 26.4616C45.9079 26.4616 46.1157 26.5486 46.2892 26.722C46.636 27.0689 46.636 27.5568 46.2892 27.9037C42.5066 31.6365 38.7869 35.4223 35.0815 39.2122C35.0135 39.2819 34.1021 39.5629 34.0073 39.5443L21.8426 37.155C21.6267 37.1123 21.4046 37.1127 21.1889 37.1563C20.9733 37.1999 20.7684 37.2857 20.5861 37.4089L17.0867 39.7754L12.9526 32.6172L20.2638 28.0078C21.09 27.4869 22.0937 27.3318 23.0372 27.5846L34.5769 30.6771C35.0507 30.8041 35.2931 31.2255 35.1661 31.6992C35.0391 32.173 34.6177 32.4154 34.144 32.2884L26.9012 30.3483C26.4742 30.234 26.0194 30.2939 25.6366 30.5149C25.2539 30.7359 24.9746 31.0998 24.8601 31.5267C24.7458 31.9536 24.8057 32.4085 25.0267 32.7912C25.2477 33.1739 25.6116 33.4533 26.0385 33.5677L33.2814 35.5078C34.9077 35.9436 36.5927 35.3266 37.601 34.0886C37.7622 34.0149 37.9105 33.916 38.0405 33.7956L45.1108 26.722C45.2842 26.5486 45.4921 26.4616 45.7 26.4616ZM8.14465 30.957L8.95194 32.3568C8.98043 32.5932 9.05923 32.8207 9.18306 33.0241C9.28997 33.1861 9.42437 33.3282 9.58019 33.444L15.6446 43.9486L11.3152 46.4486L3.81522 33.457L8.14465 30.957Z" fill="#EF9B08"/>
<path fill-rule="evenodd" clip-rule="evenodd" d="M31.6667 13.3561C31.2246 13.3561 30.8007 13.5317 30.4882 13.8443C30.1756 14.1568 30 14.5808 30 15.0228C30 15.4648 30.1756 15.8887 30.4882 16.2013C30.8007 16.5139 31.2246 16.6895 31.6667 16.6895H35C35.442 16.6895 35.866 16.5139 36.1785 16.2013C36.4911 15.8887 36.6667 15.4648 36.6667 15.0228C36.6667 14.5808 36.4911 14.1568 36.1785 13.8443C35.866 13.5317 35.442 13.3561 35 13.3561H31.6667Z" fill="#EF9B08"/>
<path fill-rule="evenodd" clip-rule="evenodd" d="M31.6667 6.68945C31.2246 6.68945 30.8007 6.86502 30.4882 7.17758C30.1756 7.49014 30 7.91409 30 8.35612C30 8.79815 30.1756 9.22205 30.4882 9.53461C30.8007 9.84717 31.2246 10.0228 31.6667 10.0228H35C35.442 10.0228 35.866 9.84717 36.1785 9.53461C36.4911 9.22205 36.6667 8.79815 36.6667 8.35612C36.6667 7.91409 36.4911 7.49014 36.1785 7.17758C35.866 6.86502 35.442 6.68945 35 6.68945H31.6667Z" fill="#EF9B08"/>
<path fill-rule="evenodd" clip-rule="evenodd" d="M33.3334 0.0227661C26.9098 0.0227661 21.6667 5.26588 21.6667 11.6894C21.6667 18.113 26.9098 23.3561 33.3334 23.3561C39.7569 23.3561 45 18.113 45 11.6894C45 5.26588 39.7569 0.0227661 33.3334 0.0227661ZM33.3334 3.3561C37.9555 3.3561 41.6667 7.06733 41.6667 11.6894C41.6667 16.3116 37.9555 20.0228 33.3334 20.0228C28.7112 20.0228 25 16.3116 25 11.6894C25 7.06733 28.7112 3.3561 33.3334 3.3561Z" fill="#EF9B08"/>
</g>
<defs>
<clipPath id="clip0_367_2318">
<rect width="50" height="50" fill="white"/>
</clipPath>
</defs>
</svg>
