<svg width="50" height="50" viewBox="0 0 50 50" fill="none" xmlns="http://www.w3.org/2000/svg">
<g clip-path="url(#clip0_233_635)">
<path d="M25 0C11.1938 0 0 11.1923 0 25C0 38.8062 11.1938 50 25 50C38.8077 50 50 38.8062 50 25C50 11.1923 38.8077 0 25 0ZM47.4213 25C47.4213 28.0686 46.8018 30.9952 45.6803 33.6609L41.3818 31.8803C42.2729 29.7623 42.7674 27.4385 42.7674 25.0001C42.7674 24.9681 42.7658 24.936 42.7658 24.904L47.4197 24.9023C47.4197 24.9359 47.4213 24.968 47.4213 25ZM25 41.2049C16.0645 41.2049 8.79522 33.9355 8.79522 25C8.79522 16.0645 16.0645 8.79522 25 8.79522C33.9355 8.79522 41.2049 16.0645 41.2049 25C41.2049 33.9355 33.9355 41.2049 25 41.2049ZM2.57871 25C2.57871 21.9299 3.19824 19.0048 4.32129 16.3376L8.61973 18.1183C7.72705 20.2362 7.23272 22.5616 7.23272 25C7.23272 25.032 7.23428 25.0626 7.23428 25.0946H2.58027C2.58027 25.0641 2.57871 25.032 2.57871 25ZM45.7367 16.4811L41.4368 18.2617C40.5243 16.0446 39.1785 14.0519 37.5016 12.3901L40.7914 9.10029C42.8971 11.1908 44.5877 13.6963 45.7367 16.4811ZM33.6609 4.31973L31.8787 8.61816C29.7623 7.72705 27.4384 7.23272 25 7.23272C24.968 7.23272 24.9359 7.23428 24.9054 7.23428V2.58027C24.9359 2.58027 24.968 2.57871 25 2.57871C28.0686 2.57871 30.9937 3.19824 33.6609 4.31973ZM16.4811 4.26328L18.2617 8.56328C16.0461 9.47578 14.0519 10.8216 12.3901 12.497L9.10039 9.20713C11.1908 7.10293 13.6963 5.4123 16.4811 4.26328ZM4.26328 33.5175L8.56328 31.7383C9.47578 33.9539 10.8216 35.9467 12.497 37.6099L9.20713 40.8997C7.10146 38.8092 5.41074 36.3037 4.26328 33.5175ZM16.3376 45.6787L18.1183 41.3803C20.2362 42.273 22.5616 42.7673 25 42.7673C25.032 42.7673 25.0641 42.7657 25.0946 42.7657V47.4196C25.0641 47.4196 25.032 47.4212 25 47.4212C21.93 47.4213 19.0033 46.8018 16.3376 45.6787ZM33.5189 45.7367L31.7383 41.4368C33.9539 40.5243 35.9481 39.1785 37.6099 37.5031L40.8997 40.793C38.8092 42.8971 36.3037 44.5877 33.5189 45.7367Z" fill="#EF9B08"/>
<path d="M13.4247 28.6987C13.3179 28.3661 13.0097 28.1555 12.6801 28.1555C12.6007 28.1555 12.5214 28.1677 12.442 28.1921C12.03 28.3248 11.8042 28.7628 11.9353 29.1748C11.9994 29.3717 12.0666 29.567 12.1368 29.7607L12.1398 29.7638L12.149 29.7882V29.7897L12.1506 29.7943L12.1521 29.7989V29.8005L12.1598 29.8188L12.1613 29.8234V29.825L12.1644 29.828V29.8296V29.8326L12.1659 29.8342L12.1675 29.8388L12.1721 29.8525L12.1736 29.8541V29.8556L12.1752 29.8587L12.1768 29.8617V29.8647L12.1783 29.8678L12.1799 29.8693V29.8724L12.1814 29.8739L12.183 29.8801L12.1846 29.8831L12.1861 29.8861V29.8877L12.1877 29.8907L12.1893 29.8923V29.8953L12.1908 29.8983L12.1924 29.9014V29.9044L12.1939 29.9074L12.1955 29.9104V29.9135L12.1985 29.9165V29.9195L12.2001 29.9225L12.2017 29.9256V29.9271L12.2032 29.9302L12.2048 29.9332V29.9348L12.2063 29.9378L12.2079 29.9408L12.2109 29.9515V29.953L12.214 29.956V29.9591L12.2155 29.9621L12.2171 29.9637V29.9682H12.2187L12.2202 29.9744L12.2248 29.9866H12.2264V29.9912L12.2279 29.9928L12.2295 29.9958V29.9974L12.2325 30.0019V30.0035L12.2432 30.0309V30.0325C12.5163 30.7223 12.8443 31.3859 13.2213 32.0162C13.3678 32.2619 13.6271 32.3976 13.8927 32.3976C14.03 32.3976 14.1674 32.361 14.2925 32.2862C14.6633 32.0649 14.7838 31.5858 14.5626 31.215C14.0869 30.4215 13.7055 29.5746 13.4247 28.6987Z" fill="#EF9B08"/>
<path d="M17.8787 15.1611C18.2281 14.9078 18.3044 14.4181 18.0512 14.0686C17.8985 13.858 17.6606 13.7466 17.4194 13.7466C17.2608 13.7466 17.099 13.7954 16.9616 13.8961L16.9586 13.8977L16.9556 13.8992L16.954 13.9008L16.9525 13.9023L16.9494 13.9039L16.9464 13.9055L16.9434 13.9085L16.9403 13.9101L16.9388 13.9131H16.9372L16.9342 13.9161H16.9312L16.9296 13.9191H16.928L16.925 13.9222H16.9235L16.9128 13.9313L16.9098 13.9344H16.9068L16.9037 13.9374L16.9007 13.9404H16.8991C16.0782 14.5447 15.326 15.2374 14.6576 16.0034C14.3769 16.3284 14.4105 16.8213 14.7355 17.1036C14.8835 17.2333 15.0666 17.2959 15.2482 17.2959C15.4663 17.2959 15.683 17.2059 15.8387 17.0289C16.4459 16.3314 17.1326 15.7028 17.8787 15.1611Z" fill="#EF9B08"/>
<path d="M20.195 36.1602C19.3512 35.7956 18.544 35.3317 17.8009 34.7824C17.6604 34.6802 17.4987 34.6298 17.337 34.6298C17.0975 34.6298 16.8609 34.7396 16.7083 34.9471C16.4519 35.2935 16.5252 35.7834 16.8731 36.0397C17.3828 36.4166 17.9229 36.7599 18.4845 37.0651L18.4906 37.0667V37.0682L18.4952 37.0698L18.512 37.079L18.515 37.082H18.5181L18.5211 37.085H18.5226L18.5379 37.0942H18.5394L18.5425 37.0972H18.544L18.5486 37.1003L18.5548 37.1033L18.5654 37.1079V37.1093L18.57 37.1109L18.5716 37.1125L18.5762 37.114L18.5808 37.1156L18.5823 37.1172L18.5853 37.1187L18.5869 37.1203L18.5975 37.1249V37.1264L18.6021 37.128L18.6037 37.1296L18.6083 37.1311H18.6099L18.6129 37.1342H18.6144L18.6251 37.1403L18.6297 37.1433H18.6312L18.6343 37.1464H18.6373L18.6403 37.1479L18.6419 37.1495L18.6449 37.151L18.6465 37.1526L18.6571 37.1572L18.6587 37.1588L18.6617 37.1603L18.6647 37.1619H18.6678L18.6693 37.1634L18.6724 37.165L18.6739 37.1666L18.6769 37.1681H18.68L18.683 37.1712L18.686 37.1727L18.6891 37.1743L18.6921 37.1759L18.6951 37.1774H18.6967L18.6982 37.1804H18.7013L18.7043 37.1835H18.7073L18.7103 37.185L18.7119 37.1866L18.7165 37.1896H18.7181L18.7226 37.1912V37.1927L18.7257 37.1943L18.7287 37.1959H18.7317L18.7348 37.1974L18.7378 37.199V37.2006L18.7439 37.2021L18.7455 37.2037L18.7485 37.2052L18.7501 37.2068L18.7531 37.2084L18.7561 37.2099L18.7592 37.2115H18.7607L18.7653 37.2145L18.7699 37.2161L18.7715 37.2177L18.7745 37.2192L18.7791 37.2208L18.7807 37.2223L18.7837 37.2239L18.7867 37.2255L18.7897 37.227H18.7913L18.7943 37.2301H18.7959L18.7989 37.2316L18.8019 37.2332L18.8081 37.2362L18.8111 37.2392H18.8141L18.8172 37.2408L18.8187 37.2424L18.8218 37.2439H18.8233L18.8264 37.2455L18.8294 37.247L18.8324 37.2486L18.8354 37.2516H18.8385L18.8415 37.2532L18.8445 37.2548L18.8461 37.2563L18.8491 37.2579H18.8507L18.8537 37.2609H18.8567L18.8598 37.2625V37.264L18.872 37.2686L18.8735 37.2702L18.8766 37.2718L18.8781 37.2733H18.8811L18.8842 37.2749L18.8872 37.2764L18.8888 37.278L18.8918 37.2796H18.8933L18.8995 37.2826L18.9025 37.2842L18.9041 37.2857H18.9057L18.9087 37.2887H18.9117L18.9147 37.2903L18.9163 37.2919L18.9193 37.2934L18.9209 37.295L18.9301 37.298L18.9331 37.2996V37.3011H18.9361L18.9391 37.3027L18.9422 37.3043L18.9452 37.3058L18.9468 37.3074H18.9483L18.9605 37.3135H18.9621L18.9651 37.3166H18.9667L18.9697 37.3181L18.9727 37.3197L18.9758 37.3213L18.9773 37.3228H18.9789L18.9819 37.3244L18.985 37.3259L18.988 37.329H18.9926L18.9941 37.3305L18.9972 37.3321L19.0002 37.3337L19.0032 37.3352H19.0048L19.0078 37.3383H19.0094L19.0124 37.3398L19.0154 37.3414L19.02 37.3444H19.0216L19.0246 37.346L19.0276 37.3475H19.0307L19.0337 37.3491L19.0352 37.3507L19.0368 37.3522L19.0398 37.3538H19.043L19.046 37.3568H19.049L19.052 37.3598H19.0551L19.0581 37.3614L19.0611 37.363L19.0627 37.3645L19.0657 37.3661H19.0673L19.0703 37.3691H19.0733L19.0764 37.3707L19.0794 37.3722L19.0824 37.3738L19.0854 37.3754L19.0885 37.3769L19.0915 37.3785H19.0945L19.0961 37.3815H19.0976L19.1007 37.3831L19.1037 37.3846H19.1067L19.1098 37.3877L19.1128 37.3892L19.1158 37.3908H19.1188L19.1219 37.3924L19.1249 37.3939V37.3955L19.1279 37.397H19.1309L19.134 37.3986L19.137 37.4002L19.14 37.4017L19.1431 37.4033L19.1461 37.4049L19.1491 37.4064L19.1521 37.408L19.1537 37.4095H19.1567L19.1583 37.4111L19.1613 37.4127L19.1643 37.4142L19.1674 37.4158H19.1704L19.172 37.4174L19.1766 37.4189L19.1796 37.4205L19.1826 37.422L19.1842 37.4236L19.1872 37.4252H19.1888L19.1918 37.4282H19.1948L19.1978 37.4298L19.2009 37.4313L19.2039 37.4329L19.2069 37.4344L19.21 37.436L19.213 37.4376H19.2145L19.2176 37.4391L19.2191 37.4407L19.2222 37.4423L19.2252 37.4438H19.2282L19.2312 37.4454L19.2328 37.4469L19.2374 37.45H19.2404L19.2434 37.4515L19.245 37.4531H19.248L19.2496 37.4547L19.2526 37.4562L19.2557 37.4578L19.2587 37.4594H19.2617L19.2709 37.4655H19.2725L19.277 37.4671V37.4686L19.2816 37.4702H19.2832L19.2862 37.4718L19.2892 37.4733L19.2923 37.4749H19.2938L19.2984 37.4779H19.3L19.3046 37.4809H19.3061L19.3107 37.4825V37.4841L19.3153 37.4856H19.3169L19.3215 37.4872L19.323 37.4887L19.3261 37.4903H19.3276L19.3383 37.4965L19.3444 37.498V37.4996L19.349 37.5011H19.3506L19.372 37.5118L19.3781 37.5134V37.5149L19.3827 37.5165H19.3843L19.3949 37.5211L19.3995 37.5241L19.4057 37.5271L19.4118 37.5287V37.5302L19.418 37.5318L19.4393 37.5425L19.5736 37.6005C19.6759 37.6447 19.7811 37.6645 19.885 37.6645C20.1871 37.6645 20.4739 37.489 20.6021 37.1945C20.7733 36.792 20.5902 36.3311 20.195 36.1602Z" fill="#EF9B08"/>
<path d="M37.8708 25.4761C37.4726 25.4761 37.1338 25.7782 37.0942 26.1825C37.0057 27.1026 36.8104 28.0105 36.5158 28.8818C36.377 29.2908 36.5967 29.7333 37.0057 29.8722C37.0881 29.9012 37.1736 29.9134 37.256 29.9134C37.5825 29.9134 37.8862 29.7089 37.996 29.3823L37.9976 29.3793V29.3747L37.9991 29.3731L38.0007 29.3701V29.3671L38.0023 29.3641L38.0038 29.3625V29.3595V29.3579L38.0069 29.3518V29.3487L38.0084 29.3457L38.01 29.3427V29.3396V29.3381L38.013 29.3351V29.3335V29.3305L38.0146 29.3274L38.0161 29.3244V29.3229L38.0207 29.3106V29.3091L38.0223 29.3061V29.303L38.0238 29.3L38.0254 29.2984V29.2954V29.2938L38.0284 29.2908V29.2878V29.2848L38.03 29.2832L38.0346 29.271V29.2694V29.2664L38.0361 29.2634L38.0377 29.2604V29.2588V29.2558L38.0407 29.2527V29.2512V29.248L38.0423 29.245L38.0439 29.242V29.239L38.0469 29.2344V29.2328V29.2298L38.0485 29.2268L38.05 29.2237V29.2207V29.2177L38.053 29.2161V29.2131V29.2101L38.0546 29.2085L38.0562 29.2055V29.2024L38.0577 29.1994L38.0593 29.1933L38.0609 29.1887L38.0624 29.1871V29.1841V29.1811L38.064 29.178L38.0655 29.175V29.172L38.0671 29.1704L38.0687 29.1674V29.1658V29.1612L38.0702 29.1597L38.0718 29.1535L38.0748 29.1489V29.1474V29.1428L38.0764 29.1412L38.0779 29.1382V29.1352L38.0795 29.1321V29.1306L38.0811 29.126V29.1244L38.0841 29.1198L38.0871 29.1076L38.0887 29.1015L38.0903 29.0969V29.0953L38.0918 29.0907L38.0934 29.0892V29.0846L38.0995 29.0678V29.0662L38.1011 29.0616H38.1027V29.0555L38.1057 29.0509V29.0493V29.0432L38.1118 29.0279V29.0264L38.1149 29.0218V29.0202V29.0156V29.0141L38.1179 29.0095V29.0039H38.1194L38.124 28.9871V28.9855L38.1271 28.981V28.9794V28.9764V28.9748L38.1301 28.9702V28.9687L38.1362 28.9458L38.1393 28.9396V28.9351V28.9335L38.1515 28.8999L38.1545 28.8877L38.1637 28.8603V28.8541L38.1729 28.8235L38.1744 28.8189V28.8174L38.176 28.8128C38.4079 28.0132 38.5696 27.1847 38.6521 26.3332C38.6917 25.9029 38.3774 25.5214 37.9486 25.4803L37.8708 25.4761Z" fill="#EF9B08"/>
<path d="M12.1185 24.6246C12.5198 24.6246 12.8601 24.3194 12.8968 23.9136C12.9792 22.9934 13.1653 22.0841 13.4537 21.2097C13.5895 20.8007 13.3667 20.3582 12.9562 20.2239C12.8754 20.1965 12.793 20.1843 12.7105 20.1843C12.384 20.1843 12.0788 20.3918 11.9705 20.7183C11.8805 20.9899 11.8012 21.2631 11.7279 21.5408V21.5454H11.7264L11.7248 21.5516V21.5561V21.5577L11.7187 21.576V21.5775V21.5806L11.7172 21.582L11.7156 21.585V21.5881V21.5911L11.714 21.5941L11.7125 21.5972V21.5987V21.6033L11.7095 21.6095V21.6125V21.6155L11.7079 21.6185L11.7063 21.6216V21.6246V21.6262L11.7048 21.6292L11.7032 21.6322V21.6352V21.6368L11.7016 21.6414V21.643L11.7001 21.646V21.649L11.6985 21.6536V21.6552L11.697 21.6598V21.6613L11.6954 21.6643V21.6674L11.6938 21.6704V21.6734V21.6765L11.6923 21.678L11.6907 21.6826V21.6842L11.6877 21.701L11.6847 21.7071V21.7133L11.6816 21.7194C11.5824 22.1253 11.5001 22.5389 11.4375 22.9585V22.9646H11.4359L11.4344 22.9708V22.9769L11.4328 22.9891L11.4312 22.9953V22.9969V23.0015V23.003L11.4297 23.0076V23.0092L11.4281 23.0138V23.0153V23.0183V23.0199V23.0245V23.0261L11.4265 23.0322L11.4258 23.0347V23.0377V23.0407V23.0437V23.0453L11.4242 23.0483V23.0514L11.4226 23.0544V23.0574V23.059V23.0636V23.0651L11.4196 23.0789V23.0805V23.0835V23.085V23.0896L11.418 23.0958L11.4165 23.1004V23.1019L11.4135 23.1279C11.3829 23.3431 11.3585 23.5598 11.3402 23.7779C11.3036 24.2067 11.621 24.5851 12.0482 24.6218L12.1185 24.6246Z" fill="#EF9B08"/>
<path d="M37.3505 21.9422C37.4268 21.9422 37.5061 21.9315 37.5824 21.9071C37.9944 21.7789 38.2264 21.341 38.0967 20.929C37.7839 19.925 37.3581 18.9697 36.8348 18.0771C36.6898 17.83 36.4289 17.6911 36.1603 17.6911C36.0261 17.6911 35.8902 17.7262 35.7667 17.7994C35.3943 18.0176 35.2692 18.4968 35.4875 18.869C35.956 19.6655 36.3313 20.514 36.606 21.3929C36.7096 21.7285 37.0179 21.9422 37.3505 21.9422Z" fill="#EF9B08"/>
<path d="M34.6832 32.782C34.4681 32.782 34.2529 32.8705 34.0988 33.0445C33.4869 33.7373 32.7942 34.3599 32.0435 34.897C31.6925 35.1473 31.6101 35.6356 31.8619 35.9864C32.013 36.2001 32.2541 36.313 32.4983 36.313C32.6539 36.313 32.8126 36.2672 32.9499 36.1695C33.6045 35.7027 34.2164 35.1777 34.7794 34.6055L34.781 34.6039L34.8024 34.5825L34.8054 34.5795L34.8084 34.5765V34.5749L34.8191 34.5643L34.8221 34.5612H34.8236L34.8267 34.5582V34.5567L34.8297 34.5536V34.5521L34.8403 34.5429H34.8419L34.8435 34.5399L34.845 34.5383L34.8481 34.5367V34.5337L34.8511 34.5321L34.8526 34.5306L34.8542 34.5276H34.8558L34.8619 34.5214L34.8635 34.5198V34.5183L34.8665 34.5152L34.8695 34.5137V34.5121L34.8726 34.5091L34.8741 34.5075L34.8757 34.506L34.8787 34.5029L34.8803 34.5014L34.8833 34.4984L34.8849 34.4968L34.8879 34.4938L34.8895 34.4922L34.891 34.4892L34.8941 34.4876L34.8971 34.4846L34.9001 34.4816V34.48L34.9047 34.4754H34.9063L34.9093 34.4708L34.9123 34.4662H34.9153L34.9184 34.4632V34.4616L34.9214 34.457L34.9336 34.4448L34.9382 34.4402L34.9398 34.4387L34.9428 34.4357C35.0526 34.3196 35.1625 34.2007 35.2693 34.0801C35.5547 33.7581 35.5257 33.2638 35.2022 32.9769C35.0525 32.8461 34.8679 32.782 34.6832 32.782Z" fill="#EF9B08"/>
<path d="M27.8229 36.8408L27.652 36.8606C26.7868 37.0529 25.8942 37.1521 25 37.1521L24.9024 37.1505H24.8993C24.4691 37.1505 24.1181 37.4984 24.1151 37.9287C24.112 38.3575 24.4569 38.7084 24.8841 38.713H24.8903L24.9177 38.7146H24.9193H24.9239H24.9269H24.9299H24.9559H24.9757H24.9787H24.9818H24.9848H24.9878H24.9909H24.9939H25H25.0062H25.0092H25.0122H25.0138H25.0184H25.02H25.023H25.026H25.029H25.0306H25.0352H25.0368H25.0413H25.0429H25.0459H25.049H25.052H25.055H25.058H25.0611H25.0733H25.0779H25.0794H25.084H25.0856L25.0902 38.713H25.0917H25.0948H25.0977H25.1007H25.1037H25.1068H25.1098H25.1128H25.1159H25.1189H25.1219H25.1249H25.1265H25.1311H25.1326H25.1372H25.1403H25.1433H25.1463H25.1493H25.1524H25.1554H25.1584H25.1615H25.1645H25.1675H25.1705H25.1736H25.1751H25.1797H25.1813H25.1843L25.1859 38.7114H25.1889H25.1919H25.1953H25.1984H25.203H25.2045H25.2107H25.2168H25.2184H25.223H25.2276H25.2291H25.2337H25.2353H25.2383H25.2413H25.2444H25.2474H25.2504H25.2534H25.2565H25.2595H25.2625H25.2656H25.2824H25.2869H25.29H25.293H25.296H25.2991H25.3021L25.3051 38.7099H25.3081H25.3112H25.3142H25.3172H25.3188H25.3234H25.3295H25.3357L25.3601 38.7083H25.3662H25.3724H25.3785H25.3831H25.3847H25.3893H25.3907H25.3952H25.3968H25.4014H25.403H25.4076H25.4091L25.4259 38.7067H25.4275H25.4305H25.4335H25.4366H25.4396H25.4426H25.4456H25.4487H25.4502L25.4548 38.7052H25.4564H25.461H25.4625H25.4671H25.4733H25.4977H25.5038H25.51L25.5161 38.7036H25.5223H25.5285L25.5743 38.702H25.5758H25.5804H25.582H25.586H25.5875L25.5921 38.7005H25.5983C26.3459 38.6685 27.0769 38.5769 27.7879 38.4289H27.7895L27.7941 38.4273H27.7956H27.7987L27.8002 38.4258L27.8048 38.4242H27.8064H27.811L27.8156 38.4227H27.8171L27.8217 38.4211H27.8233H27.8279H27.8294L27.834 38.4181H27.8356H27.8386H27.8416L27.8447 38.4165H27.8477L27.8507 38.4149H27.8537H27.8553L27.8583 38.4134H27.8614L27.8629 38.4118H27.8659H27.869H27.872L27.875 38.4103L27.8781 38.4087H27.8811H27.8826H27.8857L27.8872 38.4071L27.9117 38.4025L27.9162 38.401H27.9178L27.9208 38.3994H27.9239H27.9269H27.9284L27.933 38.3979V38.3963H27.9376H27.9392L27.9942 38.3841C28.4138 38.2895 28.6778 37.8714 28.5847 37.4518C28.5034 37.088 28.18 36.8408 27.8229 36.8408Z" fill="#EF9B08"/>
<path d="M32.7454 15.4327C32.9835 15.4327 33.2184 15.3228 33.371 15.1183C33.6303 14.7735 33.5602 14.2852 33.2153 14.0258C33.1146 13.9495 33.0138 13.8763 32.9101 13.803L32.9071 13.8H32.9055L32.901 13.797L32.8857 13.7863V13.7848L32.8811 13.7817H32.8796L32.8765 13.7787L32.8613 13.7695V13.768L32.8567 13.7649H32.8552L32.8521 13.7619L32.8506 13.7603L32.846 13.7588V13.7572L32.8414 13.7542L32.8368 13.7512L32.8306 13.7481V13.7466L32.8276 13.745L32.8246 13.7434L32.8216 13.7419V13.7403L32.8185 13.7388L32.8155 13.7357L32.8125 13.7329H32.8109L32.8063 13.7299H32.8048L32.8017 13.7268H32.8002L32.7971 13.7238H32.7956L32.7926 13.7208L32.791 13.7192L32.788 13.7177L32.7849 13.7161L32.7819 13.7131L32.7789 13.7115L32.7759 13.7099V13.7084L32.7728 13.7068L32.7698 13.7053L32.7668 13.7037L32.7652 13.7021L32.7636 13.6991H32.7606V13.6975L32.7514 13.693L32.7484 13.6899H32.7469L32.7453 13.6869H32.7423L32.7392 13.6839L32.7362 13.6808H32.7332L32.7302 13.6778L32.7224 13.6719H32.7209L32.7178 13.6688L32.7148 13.6658H32.7133L32.7087 13.6628L32.6873 13.649L32.6843 13.646L32.6797 13.643H32.6781L32.6629 13.6323L32.6583 13.6293H32.6567L32.6537 13.6263L32.6277 13.6079C31.9655 13.1623 31.2621 12.7748 30.5235 12.4482C30.4228 12.4024 30.3144 12.381 30.2092 12.381C29.91 12.381 29.6232 12.555 29.495 12.8479C29.3211 13.2416 29.498 13.704 29.8932 13.8779C30.7355 14.2503 31.5366 14.7202 32.2782 15.2757C32.4188 15.3808 32.5836 15.4327 32.7454 15.4327Z" fill="#EF9B08"/>
<path d="M25.1938 12.851H25.1999C25.6287 12.851 25.9796 12.5046 25.9873 12.0758C25.9949 11.6485 25.6562 11.2975 25.232 11.2884L25.0505 11.2853H25.0488H25.0458H25.0428H25.0398H25.0367H25.0337H25.0307H25.0245H25.0215H25.0185H25.0154H25.0124H25.0094H25.0064H25H24.9848H24.9817H24.9802H24.9756H24.9726H24.9695H24.968H24.9634H24.9618H24.9572H24.9557H24.9512H24.9481H24.9451H24.9421H24.9391H24.936H24.933H24.93H24.927H24.9239H24.9209H24.9179H24.9148H24.9118L24.9088 11.2869H24.9058H24.8996H24.895H24.8935H24.8889H24.8873H24.8827H24.8812H24.8766H24.875H24.8704H24.8689H24.8643H24.8627H24.8581H24.8565H24.8504H24.8474H24.8443H24.8428H24.8382H24.8352H24.8321H24.8291H24.8261H24.8245H24.8199H24.8184H24.8153L24.8123 11.2885H24.8093H24.8063H24.8032H24.7986H24.7956H24.7926H24.7896H24.7865H24.7835H24.7805H24.7774H24.7744H24.7714H24.7684H24.7653H24.7623H24.7593H24.7559H24.7513H24.7497H24.7451H24.7436H24.739H24.7374H24.7328H24.7313H24.7282H24.7252H24.7222H24.7191H24.7161H24.7131H24.7101H24.7039H24.7009H24.6979H24.6948L24.6918 11.29H24.6888H24.6872H24.6842H24.6812H24.6781H24.6751H24.6721H24.6705H24.6659H24.6644H24.6582L24.6521 11.2916H24.649H24.646H24.643H24.6399H24.6369H24.6339H24.6309H24.6278H24.6248H24.6218H24.6188H24.6172H24.6142H24.6126H24.6034H24.5988H24.5973H24.5942H24.5912H24.5882H24.5852H24.5821H24.5791L24.5761 11.2932H24.5731H24.57H24.567H24.564H24.5578H24.5563H24.5532H24.5486L24.5471 11.2947H24.544H24.5425H24.5379H24.5363H24.5333H24.5303H24.5272H24.5242H24.5212H24.5182H24.5151H24.5136H24.5044H24.5028H24.4998H24.4982H24.4937H24.4921H24.4875V11.2963H24.4829H24.4814H24.4768H24.4752H24.4722H24.4691L24.4554 11.2978H24.4538H24.4508H24.4478H24.4447H24.4417H24.4387H24.4371H24.4325H24.431H24.4264H24.4218H24.4202L24.4004 11.2994H24.3988H24.3958H24.3928H24.3898L24.3867 11.301H24.3837H24.3821H24.3775H24.3501H24.3455H24.3439L24.3409 11.3025H24.3379H24.3349H24.3318H24.3288H24.3272L24.3074 11.3041H24.3013H24.2967H24.2951H24.2905H24.289H24.2859H24.2829L24.2799 11.3057H24.2783L24.2523 11.3072H24.2462H24.24H24.2355H24.2339L24.2033 11.3102H24.1972H24.191H24.1849L24.1421 11.3133C23.3761 11.3605 22.6269 11.472 21.899 11.6398C21.481 11.7375 21.2185 12.1571 21.3161 12.5767C21.4 12.9384 21.722 13.1825 22.076 13.1825L22.253 13.1627C23.1487 12.9552 24.0719 12.8483 24.9996 12.8483L25.1938 12.851Z" fill="#EF9B08"/>
<path d="M24.6742 31.192C23.8955 31.192 23.1222 31.0907 22.3542 30.888C21.5969 30.6747 20.9462 30.376 20.4022 29.992L21.4262 28.008C21.8529 28.3173 22.3435 28.5627 22.8982 28.744C23.4635 28.9253 24.0342 29.016 24.6102 29.016C25.2609 29.016 25.7729 28.888 26.1462 28.632C26.5195 28.376 26.7062 28.0187 26.7062 27.56C26.7062 27.272 26.6315 27.016 26.4822 26.792C26.3329 26.568 26.0662 26.3973 25.6822 26.28C25.3089 26.1627 24.7809 26.104 24.0982 26.104H21.2342L21.8102 19.8H28.6422V21.88H22.7382L24.0822 20.696L23.6822 25.192L22.3382 24.008H24.7062C25.8155 24.008 26.7062 24.1627 27.3782 24.472C28.0609 24.7707 28.5569 25.1813 28.8662 25.704C29.1755 26.2267 29.3302 26.8187 29.3302 27.48C29.3302 28.1413 29.1649 28.7547 28.8342 29.32C28.5035 29.8747 27.9915 30.328 27.2982 30.68C26.6155 31.0213 25.7409 31.192 24.6742 31.192Z" fill="#EF9B08"/>
</g>
<defs>
<clipPath id="clip0_233_635">
<rect width="50" height="50" fill="white"/>
</clipPath>
</defs>
</svg>
