<svg width="27" height="27" viewBox="0 0 27 27" fill="none" xmlns="http://www.w3.org/2000/svg">
<g clip-path="url(#clip0_394_340)">
<path d="M13.4991 10.773L23.7018 0.575092C24.4567 -0.179699 25.6791 -0.178278 26.4322 0.578266C27.1854 1.33481 27.1839 2.56003 26.4291 3.31485L16.2307 13.5084L26.4246 23.7165C27.1789 24.4718 27.1793 25.6971 26.4256 26.453C25.6719 27.209 24.4494 27.2094 23.6952 26.454L13.4965 16.2412L3.29438 26.4385C2.5395 27.1933 1.31705 27.1919 0.563913 26.4353C-0.189221 25.6788 -0.187773 24.4536 0.56708 23.6988L10.7649 13.5058L0.577036 3.30385C-0.177245 2.54845 -0.177667 1.32323 0.57604 0.567261C1.32975 -0.188709 2.55223 -0.189132 3.30651 0.566263L13.499 10.773H13.4991Z" fill="black"/>
</g>
<defs>
<clipPath id="clip0_394_340">
<rect width="27" height="27" fill="white"/>
</clipPath>
</defs>
</svg>
