<svg width="42" height="25" viewBox="0 0 42 25" fill="none" xmlns="http://www.w3.org/2000/svg">
<g clip-path="url(#clip0_309_673)">
<path d="M25.1306 12.5003C25.1306 19.4043 19.5046 25.0006 12.565 25.0006C5.62541 25.0006 0 19.4043 0 12.5003C0 5.59687 5.62534 0 12.565 0C19.5046 0 25.1306 5.59687 25.1306 12.5003Z" fill="#D9222A"/>
<path d="M29.4344 0C26.1878 0 23.2294 1.22535 20.9994 3.23586C20.5453 3.64554 20.1211 4.08809 19.7306 4.5587H22.2693C22.6164 4.97855 22.9361 5.42019 23.2272 5.88266H18.7728C18.5059 6.30773 18.2636 6.74937 18.0489 7.20634H23.9508C24.1524 7.63524 24.3302 8.07653 24.4828 8.52973H17.5169C17.3717 8.96086 17.2495 9.40223 17.1517 9.85341H24.8476C25.0323 10.7065 25.1306 11.5921 25.1306 12.5002C25.1306 13.8884 24.9028 15.2239 24.4828 16.471H17.5169C17.6691 16.9245 17.8471 17.3662 18.0486 17.7947H23.9507C23.7355 18.2517 23.4937 18.6933 23.2265 19.1187H18.7727C19.0635 19.5804 19.3838 20.0226 19.7306 20.4415H22.2687C21.8788 20.913 21.4544 21.3561 20.9996 21.7655C23.2297 23.7757 26.1878 25.0005 29.4344 25.0005C36.374 25.0006 42 19.4043 42 12.5003C42 5.59714 36.374 0 29.4344 0Z" fill="#EE9F2D"/>
<path d="M40.3252 19.4682C40.3252 19.2453 40.5066 19.0642 40.7309 19.0642C40.9552 19.0642 41.1366 19.2453 41.1366 19.4682C41.1366 19.6909 40.9552 19.8721 40.7309 19.8721C40.5066 19.8721 40.3252 19.6909 40.3252 19.4682ZM40.7309 19.7751C40.9013 19.7751 41.0395 19.6376 41.0395 19.4682C41.0395 19.2984 40.9012 19.1615 40.7309 19.1615C40.5602 19.1615 40.4226 19.2985 40.4226 19.4682C40.4226 19.6376 40.5603 19.7751 40.7309 19.7751ZM40.6761 19.6457H40.593V19.2908H40.7435C40.775 19.2908 40.8071 19.2908 40.8348 19.3085C40.8637 19.3279 40.88 19.3622 40.88 19.3976C40.88 19.4373 40.8563 19.4744 40.8181 19.489L40.8838 19.6457H40.7917L40.7371 19.5052H40.6762V19.6457H40.6761ZM40.6761 19.4444H40.7222C40.7394 19.4444 40.7575 19.4458 40.773 19.4374C40.7866 19.4287 40.7937 19.4124 40.7937 19.3967C40.7937 19.3832 40.7852 19.3674 40.7735 19.3607C40.759 19.3517 40.7359 19.3537 40.7205 19.3537H40.6761V19.4444Z" fill="black"/>
<path d="M9.63109 13.8689C9.48787 13.8524 9.42494 13.848 9.32659 13.848C8.55337 13.848 8.16193 14.1118 8.16193 14.6327C8.16193 14.9538 8.35296 15.1581 8.65102 15.1581C9.20675 15.1581 9.60715 14.6318 9.63109 13.8689ZM10.6231 16.1667H9.49284L9.51881 15.6322C9.17399 16.0546 8.71409 16.2554 8.08899 16.2554C7.34958 16.2554 6.84271 15.6809 6.84271 14.8467C6.84271 13.5916 7.72443 12.8592 9.2379 12.8592C9.39246 12.8592 9.59084 12.8731 9.79377 12.8989C9.83605 12.7289 9.84718 12.6561 9.84718 12.5646C9.84718 12.2228 9.60946 12.0955 8.97218 12.0955C8.30487 12.088 7.75446 12.2536 7.52843 12.3276C7.54271 12.242 7.71743 11.1675 7.71743 11.1675C8.39727 10.9693 8.84555 10.8947 9.35018 10.8947C10.5214 10.8947 11.1419 11.4179 11.1407 12.4067C11.143 12.6717 11.0989 12.9986 11.0302 13.4283C10.9118 14.1757 10.6578 15.7765 10.6231 16.1667Z" fill="black"/>
<path d="M6.27201 16.1667H4.90792L5.68926 11.2923L3.94451 16.1667H3.01498L2.90004 11.3202L2.07873 16.1667H0.801788L1.86838 9.82584H3.82985L3.94885 13.3751L5.14529 9.82584H7.32698L6.27201 16.1667Z" fill="black"/>
<path d="M31.1202 13.8689C30.9776 13.8524 30.9143 13.848 30.8162 13.848C30.0434 13.848 29.6519 14.1118 29.6519 14.6327C29.6519 14.9538 29.8427 15.1581 30.1407 15.1581C30.6965 15.1581 31.0972 14.6318 31.1202 13.8689ZM32.1131 16.1667H30.9828L31.0085 15.6322C30.6637 16.0546 30.2035 16.2554 29.579 16.2554C28.8394 16.2554 28.333 15.6809 28.333 14.8467C28.333 13.5916 29.2142 12.8592 30.7279 12.8592C30.8825 12.8592 31.0805 12.8731 31.2832 12.8989C31.3255 12.7289 31.3366 12.6561 31.3366 12.5646C31.3366 12.2228 31.0992 12.0955 30.4619 12.0955C29.7946 12.088 29.2448 12.2536 29.0179 12.3276C29.0322 12.242 29.2075 11.1675 29.2075 11.1675C29.8873 10.9693 30.3353 10.8947 30.8394 10.8947C32.0113 10.8947 32.6317 11.4179 32.6305 12.4067C32.6328 12.6717 32.5888 12.9986 32.52 13.4283C32.4021 14.1757 32.1475 15.7765 32.1131 16.1667Z" fill="black"/>
<path d="M16.6856 16.0884C16.3123 16.2053 16.0212 16.2554 15.7056 16.2554C15.0083 16.2554 14.6277 15.8568 14.6277 15.1226C14.6177 14.8949 14.728 14.2954 14.8147 13.7482C14.8934 13.2665 15.4061 10.2295 15.4061 10.2295H16.7621L16.6036 11.01H17.4226L17.2377 12.2492H16.4158C16.2583 13.2299 16.034 14.4515 16.0314 14.6134C16.0314 14.8792 16.174 14.9953 16.4984 14.9953C16.6538 14.9953 16.7742 14.9795 16.8661 14.9465L16.6856 16.0884Z" fill="black"/>
<path d="M20.8431 16.0466C20.3773 16.1882 19.9278 16.2567 19.4515 16.2555C17.9337 16.254 17.1424 15.4654 17.1424 13.9551C17.1424 12.1924 18.149 10.8948 19.5154 10.8948C20.6333 10.8948 21.3473 11.6214 21.3473 12.7609C21.3473 13.1389 21.2983 13.508 21.1802 14.0291H18.48C18.3887 14.7771 18.8699 15.0888 19.6586 15.0888C20.144 15.0888 20.5818 14.9893 21.0685 14.7641L20.8431 16.0466ZM20.0809 12.9895C20.0885 12.8821 20.2248 12.0691 19.45 12.0691C19.0181 12.0691 18.7092 12.3966 18.5835 12.9895H20.0809Z" fill="black"/>
<path d="M11.4412 12.6401C11.4412 13.2924 11.7592 13.7422 12.4802 14.0799C13.0326 14.3382 13.118 14.4148 13.118 14.6489C13.118 14.9704 12.8745 15.1155 12.3346 15.1155C11.9277 15.1155 11.5492 15.0523 11.1126 14.912C11.1126 14.912 10.9332 16.0486 10.925 16.1029C11.2351 16.1703 11.5116 16.2326 12.3445 16.2555C13.7839 16.2555 14.4486 15.7103 14.4486 14.532C14.4486 13.8234 14.1703 13.4076 13.487 13.0951C12.9151 12.8339 12.8495 12.7756 12.8495 12.5348C12.8495 12.256 13.0761 12.1138 13.5171 12.1138C13.7848 12.1138 14.1506 12.1422 14.4971 12.1912L14.6913 10.9952C14.3381 10.9395 13.8026 10.8948 13.4908 10.8948C11.9648 10.8948 11.4365 11.6878 11.4412 12.6401Z" fill="black"/>
<path d="M27.4773 11.0303C27.8561 11.0303 28.2094 11.1293 28.6961 11.373L28.9193 9.99678C28.7195 9.91872 28.016 9.46057 27.4201 9.46057C26.5072 9.46057 25.7355 9.9112 25.1927 10.6549C24.4011 10.394 24.0757 10.9212 23.6767 11.4464L23.3222 11.5285C23.3491 11.3556 23.3733 11.1838 23.3651 11.01H22.1124C21.9411 12.6059 21.6378 14.2223 21.4004 15.8202L21.3385 16.1668H22.7032C22.931 14.6944 23.0558 13.7517 23.1317 13.1137L23.6456 12.8293C23.7224 12.5453 23.9626 12.4492 24.4448 12.4608C24.3818 12.7974 24.348 13.1514 24.348 13.5182C24.348 15.2052 25.2629 16.2556 26.7315 16.2556C27.1097 16.2556 27.4343 16.206 27.9369 16.0705L28.177 14.6248C27.7249 14.8463 27.3539 14.9505 27.0179 14.9505C26.2249 14.9505 25.745 14.3681 25.745 13.4056C25.7451 12.0093 26.4588 11.0303 27.4773 11.0303Z" fill="black"/>
<path d="M6.66456 15.7901H5.30019L6.08216 10.9163L4.33734 15.7901H3.40753L3.29259 10.9441L2.47128 15.7901H1.19441L2.261 9.45013H4.22247L4.27763 13.3751L5.60091 9.45013H7.7196L6.66456 15.7901Z" fill="white"/>
<path d="M39.0265 9.8259L38.724 11.658C38.351 11.1696 37.9502 10.8162 37.4212 10.8162C36.7329 10.8162 36.1064 11.3354 35.6962 12.0993C35.1252 11.9815 34.5345 11.7815 34.5345 11.7815L34.5342 11.7862C34.5803 11.359 34.5987 11.0985 34.5946 11.01H33.3416C33.1709 12.6059 32.8676 14.2223 32.6305 15.8203L32.5681 16.1668H33.9325C34.1168 14.9762 34.2579 13.9877 34.3618 13.2036C34.8279 12.7847 35.0613 12.4191 35.5323 12.4434C35.3238 12.9451 35.2015 13.5231 35.2015 14.1159C35.2015 15.4051 35.8572 16.2556 36.8488 16.2556C37.3488 16.2556 37.7323 16.0841 38.1065 15.6866L38.0426 16.1659H39.333L40.372 9.82597H39.0265V9.8259ZM37.3205 14.975C36.8562 14.975 36.6217 14.6332 36.6217 13.9586C36.6217 12.945 37.0607 12.2263 37.6795 12.2263C38.1483 12.2263 38.402 12.5817 38.402 13.2367C38.402 14.2589 37.956 14.975 37.3205 14.975Z" fill="black"/>
<path d="M10.0234 13.4932C9.8805 13.4767 9.81722 13.4723 9.71922 13.4723C8.946 13.4723 8.55484 13.7361 8.55484 14.2569C8.55484 14.5775 8.74587 14.7824 9.04337 14.7824C9.59966 14.7824 10.0001 14.256 10.0234 13.4932ZM11.0159 15.7901H9.88568L9.91137 15.2565C9.5669 15.6781 9.10637 15.8797 8.4819 15.8797C7.74221 15.8797 7.23555 15.3052 7.23555 14.471C7.23555 13.2152 8.11699 12.4834 9.63074 12.4834C9.7853 12.4834 9.98368 12.4973 10.1864 12.5232C10.2287 12.3532 10.2398 12.2804 10.2398 12.1884C10.2398 11.8465 10.0024 11.7198 9.36509 11.7198C8.6975 11.7122 8.14737 11.8779 7.92106 11.951C7.93534 11.8657 8.11006 10.7925 8.11006 10.7925C8.78962 10.5934 9.23846 10.5189 9.74246 10.5189C10.914 10.5189 11.5347 11.0423 11.5336 12.0303C11.5357 12.2964 11.4913 12.6231 11.4227 13.0522C11.3047 13.799 11.0504 15.4007 11.0159 15.7901Z" fill="white"/>
<path d="M29.3122 9.62076L29.0888 10.9973C28.6023 10.7538 28.2488 10.6547 27.8702 10.6547C26.8517 10.6547 26.1377 11.6336 26.1377 13.0298C26.1377 13.9923 26.6178 14.5744 27.4106 14.5744C27.7466 14.5744 28.1173 14.4705 28.5694 14.2488L28.3299 15.6938C27.827 15.8302 27.5028 15.8798 27.1242 15.8798C25.6558 15.8798 24.7407 14.8294 24.7407 13.1424C24.7407 10.8757 26.0047 9.29144 27.8128 9.29144C28.4083 9.29144 29.1121 9.5427 29.3122 9.62076Z" fill="white"/>
<path d="M31.5132 13.4932C31.3702 13.4767 31.3072 13.4723 31.2089 13.4723C30.436 13.4723 30.0446 13.7361 30.0446 14.2569C30.0446 14.5775 30.2356 14.7824 30.5334 14.7824C31.089 14.7824 31.4898 14.256 31.5132 13.4932ZM32.5056 15.7901H31.3751L31.4011 15.2565C31.0563 15.6781 30.5961 15.8797 29.9716 15.8797C29.2322 15.8797 28.7253 15.3052 28.7253 14.471C28.7253 13.2152 29.6071 12.4834 31.1202 12.4834C31.2751 12.4834 31.4731 12.4973 31.6761 12.5232C31.7181 12.3532 31.7295 12.2804 31.7295 12.1884C31.7295 11.8465 31.492 11.7198 30.8548 11.7198C30.1875 11.7122 29.6371 11.8779 29.4107 11.951C29.425 11.8657 29.6 10.7925 29.6 10.7925C30.2796 10.5934 30.7282 10.5189 31.2322 10.5189C32.4041 10.5189 33.0245 11.0423 33.023 12.0303C33.0253 12.2964 32.9813 12.6231 32.9125 13.0522C32.7947 13.799 32.5398 15.4007 32.5056 15.7901Z" fill="white"/>
<path d="M17.0782 15.7121C16.7046 15.829 16.4135 15.8797 16.0982 15.8797C15.4009 15.8797 15.0203 15.4811 15.0203 14.7469C15.0106 14.5186 15.121 13.9196 15.2076 13.3725C15.286 12.8902 15.7987 9.85342 15.7987 9.85342H17.1544L16.9963 10.6342H17.6921L17.5069 11.8729H16.8087C16.6512 12.8543 16.4263 14.0749 16.4239 14.2371C16.4239 14.5038 16.5668 14.619 16.8909 14.619C17.0464 14.619 17.1666 14.6039 17.2587 14.5708L17.0782 15.7121Z" fill="white"/>
<path d="M21.2356 15.6708C20.7701 15.8124 20.3201 15.8806 19.8441 15.8797C18.3262 15.8783 17.535 15.0896 17.535 13.5794C17.535 11.8161 18.5415 10.5188 19.9079 10.5188C21.0259 10.5188 21.7399 11.2451 21.7399 12.3851C21.7399 12.7635 21.6909 13.1325 21.5731 13.6534H18.8728C18.7815 14.4014 19.2627 14.7134 20.0514 14.7134C20.5365 14.7134 20.9746 14.6135 21.4611 14.3877L21.2356 15.6708ZM20.4733 12.6129C20.4814 12.5058 20.6174 11.6925 19.8423 11.6925C19.4107 11.6925 19.1018 12.021 18.9761 12.6129H20.4733Z" fill="white"/>
<path d="M11.8338 12.2643C11.8338 12.9166 12.1517 13.3658 12.8727 13.7041C13.4252 13.9624 13.5106 14.0393 13.5106 14.2732C13.5106 14.5946 13.2668 14.7397 12.7274 14.7397C12.3203 14.7397 11.9417 14.6765 11.5047 14.5363C11.5047 14.5363 11.3259 15.6728 11.3177 15.7272C11.6272 15.7945 11.904 15.856 12.737 15.8797C14.1766 15.8797 14.8411 15.3345 14.8411 14.1565C14.8411 13.4476 14.5632 13.0318 13.8795 12.7194C13.3078 12.4576 13.2416 12.4001 13.2416 12.159C13.2416 11.8805 13.4688 11.7371 13.9096 11.7371C14.177 11.7371 14.5428 11.7664 14.8898 11.8155L15.0838 10.6191C14.7309 10.5634 14.1954 10.5188 13.8836 10.5188C12.3573 10.5188 11.8294 11.3112 11.8338 12.2643Z" fill="white"/>
<path d="M39.7255 15.7901H38.4349L38.4991 15.3101C38.1249 15.7082 37.7413 15.8797 37.2414 15.8797C36.2497 15.8797 35.5944 15.0292 35.5944 13.7401C35.5944 12.0249 36.6108 10.5791 37.8139 10.5791C38.343 10.5791 38.7434 10.7941 39.1162 11.2822L39.4189 9.45013H40.7644L39.7255 15.7901ZM37.7133 14.5987C38.3486 14.5987 38.7948 13.8826 38.7948 12.861C38.7948 12.2061 38.5408 11.8506 38.0721 11.8506C37.4535 11.8506 37.014 12.569 37.014 13.5829C37.014 14.2574 37.249 14.5987 37.7133 14.5987Z" fill="white"/>
<path d="M33.7344 10.6343C33.5635 12.2302 33.2602 13.8467 33.0231 15.4437L32.9606 15.7902H34.325C34.813 12.6373 34.9311 12.0216 35.6961 12.0987C35.8181 11.4534 36.045 10.8882 36.2141 10.603C35.6427 10.4846 35.3237 10.8058 34.906 11.416C34.939 11.1522 34.9993 10.896 34.9873 10.6343H33.7344" fill="white"/>
<path d="M22.505 10.6343C22.3338 12.2302 22.0305 13.8467 21.7933 15.4437L21.7312 15.7902H23.0962C23.5836 12.6373 23.7014 12.0216 24.4661 12.0987C24.5886 11.4534 24.8155 10.8882 24.9841 10.603C24.4133 10.4846 24.0939 10.8058 23.6765 11.416C23.7095 11.1522 23.7693 10.896 23.7579 10.6343H22.505" fill="white"/>
<path d="M40.3247 15.3864C40.3247 15.1628 40.5064 14.9826 40.7304 14.9826C40.9547 14.9826 41.1361 15.1628 41.1361 15.3864C41.1361 15.609 40.9547 15.7901 40.7304 15.7901C40.5063 15.7901 40.3247 15.6091 40.3247 15.3864ZM40.7304 15.6932C40.9011 15.6932 41.0387 15.5557 41.0387 15.3865C41.0387 15.2171 40.901 15.0795 40.7304 15.0795C40.56 15.0795 40.4219 15.2171 40.4219 15.3865C40.4218 15.5557 40.56 15.6932 40.7304 15.6932ZM40.6755 15.5629H40.5924V15.209H40.7431C40.7743 15.209 40.8067 15.2096 40.8338 15.2267C40.863 15.2464 40.8796 15.28 40.8796 15.3154C40.8796 15.3554 40.856 15.3928 40.8174 15.4071L40.8834 15.5628H40.7909L40.7364 15.423H40.6755L40.6755 15.5629ZM40.6755 15.3624H40.7212C40.7385 15.3624 40.7572 15.3637 40.7723 15.3554C40.786 15.3467 40.793 15.3302 40.793 15.3145C40.793 15.3014 40.7849 15.2858 40.7729 15.278C40.7586 15.2699 40.735 15.2722 40.7195 15.2722H40.6755L40.6755 15.3624Z" fill="white"/>
</g>
<defs>
<clipPath id="clip0_309_673">
<rect width="42" height="25" fill="white"/>
</clipPath>
</defs>
</svg>
