<svg width="50" height="50" viewBox="0 0 50 50" fill="none" xmlns="http://www.w3.org/2000/svg">
<path d="M27.6274 40.2778C27.6274 41.5137 26.641 42.5155 25.424 42.5155C24.2071 42.5155 23.2206 41.5137 23.2206 40.2778C23.2206 39.042 24.2071 38.0402 25.424 38.0402C26.641 38.0402 27.6274 39.042 27.6274 40.2778Z" fill="#EF9B08"/>
<path fill-rule="evenodd" clip-rule="evenodd" d="M19.3297 6.62279e-07L19.4369 2.30692e-05C19.4536 6.92668e-07 19.4704 6.92668e-07 19.4871 2.30692e-05H31.361C31.3777 6.92668e-07 31.3944 6.92668e-07 31.4112 2.30692e-05L31.5183 6.62279e-07C31.5712 6.62279e-07 31.6223 -6.0203e-06 31.6723 2.30692e-05H32.0343C32.0705 2.30692e-05 32.1064 0.000895842 32.1421 0.00264121C32.332 0.00543828 32.501 0.0110995 32.6603 0.0226234C37.0346 0.338893 40.5144 3.87282 40.8258 8.31497C40.8483 8.63426 40.848 8.99177 40.848 9.47459V36.2769C40.848 38.1084 40.848 39.6201 40.7476 40.8508C40.6429 42.1292 40.4184 43.3038 39.8558 44.4038C39.0196 46.0386 37.7071 47.3716 36.0972 48.2208C35.014 48.7921 33.8574 49.0201 32.5986 49.1264C31.3867 49.2284 29.8983 49.2284 28.0948 49.2284H22.7532C20.9499 49.2284 19.4613 49.2284 18.2495 49.1264C16.9906 49.0201 15.8341 48.7921 14.7508 48.2208C13.1411 47.3716 11.8285 46.0386 10.9923 44.4038C10.4296 43.3038 10.2052 42.1292 10.1006 40.8508C9.99996 39.6201 9.99998 38.1084 10 36.2769L10 9.47461C9.99994 8.99179 9.9999 8.63426 10.0223 8.31497C10.3337 3.87282 13.8136 0.338893 18.1878 0.0226234C18.3471 0.0110995 18.5161 0.00543828 18.7059 0.00264121C18.7417 0.000895842 18.7776 2.30692e-05 18.8138 2.30692e-05H19.1758C19.2257 -6.0203e-06 19.277 6.62279e-07 19.3297 6.62279e-07ZM19.412 4.47533C18.8186 4.47533 18.6374 4.47674 18.5008 4.48663C16.3137 4.64477 14.5737 6.41173 14.418 8.6328C14.4083 8.77152 14.4069 8.95552 14.4069 9.55816V36.1829C14.4069 38.1319 14.4087 39.4568 14.4924 40.4805C14.5739 41.4772 14.7215 41.986 14.903 42.3409C15.3211 43.1581 15.9774 43.8247 16.7823 44.2492C17.1317 44.4336 17.6327 44.5835 18.6142 44.6663C19.6221 44.7513 20.9268 44.7531 22.846 44.7531H28.002C29.9212 44.7531 31.2259 44.7513 32.234 44.6663C33.2154 44.5835 33.7164 44.4336 34.0659 44.2492C34.8706 43.8247 35.527 43.1581 35.945 42.3409C36.1265 41.986 36.2742 41.4772 36.3557 40.4805C36.4394 39.4568 36.4412 38.1319 36.4412 36.1829V9.55816C36.4412 8.95552 36.4399 8.77152 36.4302 8.6328C36.2744 6.41173 34.5343 4.64477 32.3472 4.48663C32.2108 4.47674 32.0295 4.47533 31.4361 4.47533C31.2887 4.47533 31.2722 4.47569 31.2611 4.47614C30.978 4.48703 30.7098 4.60829 30.5126 4.81472C30.5047 4.82282 30.4935 4.83501 30.395 4.94625L29.3181 6.16123L29.2906 6.19208C29.2776 6.2064 29.2523 6.23431 29.2199 6.26738C29.1509 6.33773 29.0271 6.45648 28.851 6.57427C28.6399 6.71538 28.4077 6.82044 28.1633 6.88529C27.9593 6.93941 27.7894 6.95353 27.692 6.95844C27.646 6.96074 27.6085 6.96125 27.5896 6.96143L27.5486 6.96161H23.2997L23.2585 6.96143C23.2395 6.96125 23.2021 6.96074 23.1563 6.95844C23.0586 6.95353 22.8888 6.93941 22.6847 6.88529C22.4404 6.82044 22.2081 6.71538 21.997 6.57427C21.821 6.45648 21.6971 6.33773 21.6282 6.26738C21.596 6.23431 21.5704 6.2064 21.5574 6.19208L21.5299 6.16123L20.4532 4.94625C20.3546 4.83501 20.3433 4.82282 20.3356 4.81472C20.1382 4.60829 19.8701 4.48703 19.587 4.47614C19.5758 4.47569 19.5593 4.47533 19.412 4.47533Z" fill="#EF9B08"/>
</svg>
