<svg width="50" height="50" viewBox="0 0 50 50" fill="none" xmlns="http://www.w3.org/2000/svg">
<path d="M25 23.8877C27.9926 23.8877 30.8627 22.6988 32.9788 20.5827C35.0949 18.4666 36.2838 15.5965 36.2838 12.6039C36.2838 9.61125 35.0949 6.74118 32.9788 4.62507C30.8627 2.50895 27.9926 1.32013 25 1.32013C22.0074 1.32013 19.1373 2.50895 17.0212 4.62507C14.9051 6.74118 13.7162 9.61125 13.7162 12.6039C13.7162 15.5965 14.9051 18.4666 17.0212 20.5827C19.1373 22.6988 22.0074 23.8877 25 23.8877ZM25 28.8452C9.99751 28.8452 0.380066 37.1242 0.380066 41.1552V48.6822H49.6199V41.1552C49.6199 36.2804 40.515 28.8452 25 28.8452Z" fill="#EF9B08"/>
</svg>
