<svg width="50" height="21" viewBox="0 0 50 21" fill="none" xmlns="http://www.w3.org/2000/svg">
<g clip-path="url(#clip0_309_649)">
<path d="M16.3845 13.7256C16.3845 13.8344 16.3504 13.924 16.2821 13.9944C16.2139 14.0648 16.1271 14.1 16.0217 14.1C15.9163 14.1 15.8294 14.0648 15.7612 13.9944C15.693 13.924 15.6589 13.8344 15.6589 13.7256V6.97681C15.6589 6.868 15.693 6.77839 15.7612 6.708C15.8294 6.63758 15.9163 6.60239 16.0217 6.60239H17.8821C18.3349 6.60239 18.7379 6.708 19.0915 6.91919C19.4511 7.124 19.7302 7.412 19.9287 7.78319C20.1271 8.148 20.2263 8.56719 20.2263 9.04081C20.2263 9.508 20.1271 9.924 19.9287 10.2888C19.7302 10.6536 19.4511 10.9384 19.0915 11.1432C18.7379 11.348 18.3349 11.4504 17.8821 11.4504H16.3845V13.7256ZM17.8821 10.7304C18.1984 10.7304 18.4806 10.66 18.7287 10.5192C18.9767 10.372 19.169 10.1704 19.3054 9.91439C19.448 9.65839 19.5194 9.36719 19.5194 9.04081C19.5194 8.708 19.448 8.41358 19.3054 8.15758C19.169 7.89519 18.9767 7.69039 18.7287 7.54319C18.4806 7.396 18.1984 7.32239 17.8821 7.32239H16.3845V10.7304H17.8821Z" fill="#2196F3"/>
<path d="M21.4105 9.22318C21.4105 9.11437 21.4446 9.02479 21.5128 8.95437C21.5811 8.88399 21.6679 8.84879 21.7733 8.84879C21.8787 8.84879 21.9625 8.88399 22.0245 8.95437C22.0927 9.02479 22.1268 9.11437 22.1268 9.22318V13.7256C22.1268 13.8344 22.0927 13.924 22.0245 13.9944C21.9625 14.0648 21.8787 14.1 21.7733 14.1C21.6679 14.1 21.5811 14.0648 21.5128 13.9944C21.4446 13.924 21.4105 13.8344 21.4105 13.7256V9.22318ZM21.7733 6.80399C21.9097 6.80399 22.0276 6.85199 22.1268 6.94799C22.226 7.04399 22.2756 7.16879 22.2756 7.32237C22.2756 7.46956 22.226 7.59437 22.1268 7.69679C22.0276 7.79918 21.9066 7.85037 21.764 7.85037C21.6214 7.85037 21.5004 7.79918 21.4012 7.69679C21.3082 7.59437 21.2617 7.46956 21.2617 7.32237C21.2617 7.16879 21.3113 7.04399 21.4105 6.94799C21.5097 6.85199 21.6307 6.80399 21.7733 6.80399Z" fill="#2196F3"/>
<path d="M26.2669 8.80078C26.7507 8.80078 27.1879 8.9192 27.5786 9.15597C27.9755 9.3864 28.2856 9.7064 28.5088 10.116C28.7383 10.5256 28.853 10.98 28.853 11.4792V13.7352C28.853 13.8376 28.8189 13.924 28.7507 13.9944C28.6825 14.0648 28.5956 14.1 28.4902 14.1C28.3848 14.1 28.298 14.068 28.2297 14.004C28.1615 13.9336 28.1274 13.844 28.1274 13.7352V13.1592C27.9104 13.4664 27.6344 13.7096 27.2995 13.8888C26.9646 14.0616 26.5956 14.148 26.1925 14.148C25.7212 14.148 25.2933 14.0328 24.9088 13.8024C24.5305 13.5656 24.2297 13.2456 24.0065 12.8424C23.7894 12.4328 23.6809 11.9784 23.6809 11.4792C23.6809 10.98 23.7925 10.5256 24.0158 10.116C24.2453 9.7064 24.5553 9.3864 24.946 9.15597C25.3429 8.9192 25.7832 8.80078 26.2669 8.80078ZM26.2669 13.476C26.6204 13.476 26.9398 13.3896 27.2251 13.2168C27.5104 13.044 27.7336 12.8072 27.8948 12.5064C28.0623 12.1992 28.146 11.8568 28.146 11.4792C28.146 11.1016 28.0623 10.7624 27.8948 10.4616C27.7336 10.1544 27.5104 9.9144 27.2251 9.74159C26.9398 9.5624 26.6204 9.47278 26.2669 9.47278C25.9135 9.47278 25.591 9.5624 25.2995 9.74159C25.0142 9.9144 24.7879 10.1544 24.6204 10.4616C24.4592 10.7624 24.3786 11.1016 24.3786 11.4792C24.3786 11.8568 24.4592 12.1992 24.6204 12.5064C24.7879 12.8072 25.0142 13.044 25.2995 13.2168C25.591 13.3896 25.9135 13.476 26.2669 13.476Z" fill="#2196F3"/>
<path d="M32.0042 8.80078C32.4135 8.80078 32.7701 8.8744 33.074 9.02159C33.3779 9.1624 33.6228 9.36078 33.8089 9.61678C33.8585 9.69997 33.8833 9.77359 33.8833 9.83759C33.8833 9.9464 33.8337 10.0328 33.7345 10.0968C33.6911 10.1288 33.6322 10.1448 33.5577 10.1448C33.4275 10.1448 33.319 10.0968 33.2322 10.0008C32.9283 9.6424 32.5128 9.4632 31.9856 9.4632C31.6445 9.4632 31.3717 9.53678 31.167 9.68397C30.9624 9.82478 30.86 10.004 30.86 10.2216C30.86 10.452 30.9562 10.6376 31.1484 10.7784C31.3407 10.9128 31.6817 11.0216 32.1717 11.1048C32.8353 11.22 33.3097 11.4088 33.5949 11.6712C33.8802 11.9272 34.0228 12.2472 34.0228 12.6312C34.0228 12.9256 33.936 13.188 33.7624 13.4184C33.5949 13.6488 33.3593 13.828 33.0554 13.956C32.7515 14.084 32.4073 14.148 32.0228 14.148C31.6384 14.148 31.2694 14.0808 30.9159 13.9464C30.5624 13.812 30.2771 13.6232 30.06 13.38C29.998 13.3032 29.967 13.2296 29.967 13.1592C29.967 13.0504 30.0166 12.9544 30.1159 12.8712C30.1903 12.8136 30.2678 12.7848 30.3484 12.7848C30.4538 12.7848 30.5438 12.8296 30.6182 12.9192C30.767 13.0984 30.9624 13.236 31.2043 13.332C31.4523 13.428 31.7252 13.476 32.0228 13.476C32.4569 13.476 32.7825 13.3992 32.9996 13.2456C33.2166 13.092 33.3283 12.8904 33.3345 12.6408C33.3345 12.4104 33.2259 12.2184 33.0089 12.0648C32.7918 11.9112 32.4476 11.796 31.9763 11.7192C31.3686 11.6168 30.9128 11.4408 30.6089 11.1912C30.3112 10.9352 30.1624 10.628 30.1624 10.2696C30.1624 9.8024 30.336 9.44078 30.6833 9.18478C31.0368 8.92878 31.4771 8.80078 32.0042 8.80078Z" fill="#2196F3"/>
<path d="M37.5026 13.3608C37.6019 13.3608 37.6825 13.3961 37.7444 13.4664C37.8063 13.5368 37.8373 13.6264 37.8373 13.7352C37.8373 13.8376 37.8 13.9241 37.7257 13.9944C37.6511 14.0648 37.5582 14.1001 37.4466 14.1001H37.2513C36.9226 14.1001 36.6281 14.0201 36.3676 13.8601C36.1071 13.6936 35.9025 13.4728 35.7536 13.1976C35.611 12.9161 35.5397 12.5992 35.5397 12.2472V9.68405H34.935C34.8358 9.68405 34.7552 9.65524 34.6932 9.59763C34.6374 9.53363 34.6094 9.45682 34.6094 9.36724C34.6094 9.27124 34.6374 9.19444 34.6932 9.13682C34.7552 9.07282 34.8358 9.04082 34.935 9.04082H35.5397V7.55282C35.5397 7.44405 35.5707 7.35444 35.6327 7.28405C35.7009 7.21363 35.7877 7.17844 35.8932 7.17844C35.9986 7.17844 36.0854 7.21363 36.1536 7.28405C36.2218 7.35444 36.2559 7.44405 36.2559 7.55282V9.04082H37.3071C37.4063 9.04082 37.484 9.07282 37.5396 9.13682C37.6019 9.19444 37.6328 9.27124 37.6328 9.36724C37.6328 9.45682 37.6019 9.53363 37.5396 9.59763C37.484 9.65524 37.4063 9.68405 37.3071 9.68405H36.2559V12.2472C36.2559 12.5736 36.349 12.8424 36.535 13.0536C36.7211 13.2584 36.9598 13.3608 37.2513 13.3608H37.5026Z" fill="#2196F3"/>
<path d="M41.3011 8.7912C41.5616 8.7912 41.7664 8.82639 41.9149 8.89681C42.0701 8.9672 42.1478 9.06639 42.1478 9.19439C42.1478 9.23281 42.1444 9.26162 42.1384 9.28081C42.1134 9.37039 42.0731 9.4312 42.0175 9.4632C41.9679 9.4952 41.8966 9.5112 41.8034 9.5112C41.7478 9.5112 41.6515 9.50481 41.5149 9.49201C41.4653 9.48562 41.391 9.48239 41.2918 9.48239C40.8269 9.48239 40.4451 9.61039 40.1478 9.86639C39.8563 10.1224 39.7104 10.4552 39.7104 10.8648V13.7352C39.7104 13.8504 39.6795 13.94 39.6175 14.004C39.5552 14.068 39.4687 14.1 39.3571 14.1C39.2451 14.1 39.1586 14.068 39.0966 14.004C39.0343 13.94 39.0034 13.8504 39.0034 13.7352V9.21362C39.0034 9.09839 39.0343 9.00881 39.0966 8.94481C39.1586 8.88081 39.2451 8.84881 39.3571 8.84881C39.4687 8.84881 39.5552 8.88081 39.6175 8.94481C39.6795 9.00881 39.7104 9.09839 39.7104 9.21362V9.63601C39.8903 9.3672 40.1198 9.1592 40.3989 9.01201C40.678 8.86481 40.9787 8.7912 41.3011 8.7912Z" fill="#2196F3"/>
<path d="M43.4127 9.22318C43.4127 9.11437 43.447 9.02479 43.5153 8.95437C43.5832 8.88399 43.6702 8.84879 43.7758 8.84879C43.881 8.84879 43.9646 8.88399 44.0269 8.95437C44.0948 9.02479 44.1291 9.11437 44.1291 9.22318V13.7256C44.1291 13.8344 44.0948 13.924 44.0269 13.9944C43.9646 14.0648 43.881 14.1 43.7758 14.1C43.6702 14.1 43.5832 14.0648 43.5153 13.9944C43.447 13.924 43.4127 13.8344 43.4127 13.7256V9.22318ZM43.7758 6.80399C43.9119 6.80399 44.0299 6.85199 44.1291 6.94799C44.2284 7.04399 44.278 7.16879 44.278 7.32237C44.278 7.46956 44.2284 7.59437 44.1291 7.69679C44.0299 7.79918 43.909 7.85037 43.7664 7.85037C43.6235 7.85037 43.5026 7.79918 43.4034 7.69679C43.3105 7.59437 43.2638 7.46956 43.2638 7.32237C43.2638 7.16879 43.3134 7.04399 43.4127 6.94799C43.5119 6.85199 43.6328 6.80399 43.7758 6.80399Z" fill="#2196F3"/>
<path d="M49.7202 13.524C49.7884 13.6136 49.8224 13.7 49.8224 13.7832C49.8224 13.8728 49.7884 13.9496 49.7202 14.0136C49.6582 14.0712 49.5869 14.1 49.5063 14.1C49.4317 14.1 49.3698 14.0872 49.3201 14.0616C49.2705 14.036 49.2239 13.9912 49.1806 13.9272L47.6549 11.9208L46.0735 13.9848C46.0179 14.0616 45.934 14.1 45.8224 14.1C45.7231 14.1 45.6425 14.068 45.5806 14.004C45.5246 13.94 45.497 13.8632 45.497 13.7736C45.497 13.6712 45.528 13.5848 45.5899 13.5144L47.1993 11.4408L45.6735 9.44401C45.6116 9.37362 45.5806 9.2872 45.5806 9.18482C45.5806 9.08882 45.6086 9.00882 45.6642 8.94482C45.7202 8.88082 45.8007 8.84882 45.9063 8.84882C46.0116 8.84882 46.1015 8.8872 46.1761 8.96401L47.6735 10.9512L49.1526 9.02162C49.2396 8.90643 49.3418 8.84882 49.4597 8.84882C49.559 8.84882 49.6366 8.88082 49.6922 8.94482C49.7541 9.00882 49.7851 9.08562 49.7851 9.1752C49.7851 9.2712 49.7511 9.36401 49.6828 9.45362L48.1388 11.4312L49.7202 13.524Z" fill="#2196F3"/>
<path d="M8.79631 8.53826C8.76579 8.54884 8.7337 8.55707 8.70392 8.57091C8.32914 8.73057 8.01851 9.02014 7.82437 9.3908C7.63023 9.76149 7.56441 10.1906 7.63802 10.6061C7.64739 10.6608 7.65683 10.7156 7.67011 10.7695C7.68344 10.8235 7.69989 10.8782 7.71791 10.933C7.84582 11.2992 8.07638 11.6167 8.3797 11.8443C8.40549 11.8623 8.4306 11.8803 8.45799 11.8974C8.51515 11.9343 8.57422 11.9679 8.635 11.9979C8.67728 12.02 8.72034 12.0413 8.765 12.0601C8.97437 12.147 9.1975 12.1922 9.42288 12.1933C9.44399 12.1933 9.46355 12.1875 9.48396 12.1867V12.1802C9.72194 12.1689 9.95608 12.1136 10.1755 12.0167C10.5833 11.8311 10.9108 11.4945 11.095 11.0718C11.2791 10.6491 11.3069 10.1702 11.1728 9.72745C11.0388 9.28468 10.7525 8.90937 10.3691 8.6738C9.98567 8.43822 9.53228 8.3591 9.09627 8.4516C9.07041 8.45734 9.04534 8.46141 9.01795 8.46795C8.94273 8.48634 8.86866 8.5098 8.79631 8.53826Z" fill="#FFD833"/>
<mask id="mask0_309_649" style="mask-type:alpha" maskUnits="userSpaceOnUse" x="0" y="0" width="12" height="21">
<path d="M7.79478 8.44757C7.15832 7.39926 6.78761 6.31164 6.68265 5.18487C5.75698 4.40026 4.28097 4.01502 2.25465 4.02919C2.20469 4.88603 2.32796 5.74426 2.61647 6.54814H2.59611C2.80621 7.06564 3.09912 7.54214 3.46229 7.95718C3.46286 7.96522 3.46496 7.97303 3.46845 7.98018C3.47194 7.98734 3.47678 7.99368 3.48265 7.99891C3.61089 8.1458 3.75254 8.27941 3.90556 8.39772C4.79683 9.11041 5.8528 9.55176 7.07347 9.72176C7.18608 9.23122 7.43739 8.78726 7.79478 8.44757Z" fill="url(#paint0_linear_309_649)"/>
<path d="M3.90474 13.3981H3.88433C3.30743 14.3085 2.93829 15.6111 2.77696 17.3056C3.66455 17.4457 4.48321 17.4037 5.23298 17.1798C5.87895 16.9779 6.47604 16.634 6.9841 16.1712V16.15L7.10474 16.0241H7.12668C7.92914 15.1382 8.46429 14.0358 8.73216 12.7172C8.36526 12.6031 8.0297 12.3994 7.75317 12.1231C6.52261 12.9605 5.23978 13.3855 3.90474 13.3981Z" fill="url(#paint1_linear_309_649)"/>
<path d="M3.50232 8.92399C3.3687 8.81241 3.24111 8.69318 3.12013 8.56683C2.18034 8.83272 1.14029 9.44191 0 10.3943C0.4655 11.1074 1.07769 11.703 1.79188 12.1376C2.38256 12.4898 3.04453 12.6914 3.72396 12.7261H3.90489C5.10575 12.7141 6.25437 12.3379 7.35082 11.5974C7.14086 11.2335 7.02332 10.8197 7.00933 10.3951C5.66698 10.2083 4.49798 9.71787 3.50232 8.92399Z" fill="url(#paint2_linear_309_649)"/>
<path d="M10.6994 8.17458C11.3338 7.15458 11.6925 6.10188 11.7755 5.01646V4.97481C11.7893 4.84231 11.7961 4.70919 11.7958 4.57596C11.7875 3.80008 11.5865 3.03975 11.2124 2.3692C10.8381 1.67067 10.2825 1.0476 9.54578 0.5H9.54112C8.80284 1.04488 8.24597 1.66821 7.8706 2.37001C7.49653 3.04057 7.29552 3.8009 7.28716 4.57677C7.28687 4.71 7.29369 4.84315 7.3075 4.97562V5.01727C7.38739 6.064 7.72466 7.08046 8.31937 8.06669C8.69071 7.86612 9.10593 7.77062 9.52366 7.78969C9.94142 7.80877 10.3471 7.94177 10.7002 8.17538L10.6994 8.17458Z" fill="url(#paint3_linear_309_649)"/>
<path d="M11.5537 15.6039V15.5827C11.4284 14.5507 11.0809 13.5386 10.5113 12.5464C10.1721 12.7282 9.79612 12.823 9.41482 12.8226C9.39914 12.8226 9.38351 12.8226 9.3678 12.8226C9.0744 14.2715 8.48131 15.4857 7.58847 16.4654C7.58571 16.465 7.58287 16.4652 7.58026 16.4662C7.57758 16.4671 7.57515 16.4687 7.57321 16.4707C7.57123 16.4728 7.56974 16.4753 7.56885 16.478C7.56795 16.4808 7.56773 16.4838 7.5681 16.4867C7.56851 16.4895 7.56825 16.4925 7.56735 16.4952C7.56649 16.498 7.56496 16.5005 7.56299 16.5026C7.56101 16.5047 7.55862 16.5062 7.55597 16.5071C7.55336 16.508 7.55052 16.5083 7.54773 16.5079C7.74929 17.5862 8.37321 18.7849 9.41952 20.1041C10.0918 19.6029 10.6545 18.9586 11.0704 18.2136C11.3654 17.6705 11.5504 17.0698 11.6139 16.449C11.5888 16.4122 11.5749 16.3684 11.574 16.3232C11.6012 16.0837 11.5944 15.8413 11.5537 15.6039Z" fill="url(#paint4_linear_309_649)"/>
</mask>
<g mask="url(#mask0_309_649)">
<path d="M12.0155 0.5H0V20.1H12.0155V0.5Z" fill="url(#paint5_radial_309_649)"/>
</g>
</g>
<defs>
<linearGradient id="paint0_linear_309_649" x1="2.3255" y1="4.09998" x2="7.12311" y2="8.74884" gradientUnits="userSpaceOnUse">
<stop stop-color="#FF4081"/>
<stop offset="1" stop-color="#FFA73F"/>
</linearGradient>
<linearGradient id="paint1_linear_309_649" x1="8.9147" y1="12.1" x2="2.55883" y2="17.104" gradientUnits="userSpaceOnUse">
<stop stop-color="#FFA73F"/>
<stop offset="1" stop-color="#FF4081"/>
</linearGradient>
<linearGradient id="paint2_linear_309_649" x1="7.36433" y1="11.5" x2="-0.00766025" y2="10.5601" gradientUnits="userSpaceOnUse">
<stop stop-color="#FFA73F"/>
<stop offset="1" stop-color="#FF4081"/>
</linearGradient>
<linearGradient id="paint3_linear_309_649" x1="9.54149" y1="0.5" x2="9.54149" y2="8.17538" gradientUnits="userSpaceOnUse">
<stop stop-color="#FF4081"/>
<stop offset="1" stop-color="#FFA73F"/>
</linearGradient>
<linearGradient id="paint4_linear_309_649" x1="9.58082" y1="12.5464" x2="9.58082" y2="20.1041" gradientUnits="userSpaceOnUse">
<stop stop-color="#FFA73F"/>
<stop offset="1" stop-color="#FF4081"/>
</linearGradient>
<radialGradient id="paint5_radial_309_649" cx="0" cy="0" r="1" gradientUnits="userSpaceOnUse" gradientTransform="translate(8.91474 10.5) rotate(-180) scale(13.1783 8.60408)">
<stop stop-color="#FFA73F"/>
<stop offset="0.756906" stop-color="#FF4081"/>
</radialGradient>
<clipPath id="clip0_309_649">
<rect width="50" height="20" fill="white" transform="translate(0 0.5)"/>
</clipPath>
</defs>
</svg>
