<svg width="47" height="50" viewBox="0 0 47 50" fill="none" xmlns="http://www.w3.org/2000/svg">
<path d="M46.5115 18.515C46.1697 18.3853 45.7867 18.5593 45.6585 18.9011C45.4708 19.397 45.2618 19.8028 45.0436 20.1264C44.8529 20.4101 44.656 20.6314 44.4577 20.8039C44.4577 20.7855 44.4607 20.7657 44.4607 20.7474C44.4607 20.253 44.3935 19.8151 44.2669 19.4291C44.0792 18.8492 43.7466 18.3899 43.3316 18.0909C42.9165 17.7888 42.4343 17.6545 41.972 17.6545C41.4654 17.6545 40.9741 17.8132 40.5682 18.1092C40.3667 18.2618 40.1868 18.4464 40.0433 18.6646C39.9014 18.8844 39.7976 19.1377 39.7473 19.4093C39.7244 19.5375 39.7137 19.6656 39.7137 19.7907C39.7137 20.1935 39.8251 20.5781 40.0067 20.9214C40.2784 21.4387 40.7056 21.8735 41.2274 22.1893C41.531 22.374 41.8698 22.5174 42.2314 22.6044C42.21 22.6227 42.1902 22.6426 42.1673 22.6624C41.621 23.1141 40.8658 23.4925 40.0677 23.7518C38.2122 21.1884 35.4855 19.281 32.3254 18.1808V22.0337H18.7191V18.3762C17.6342 18.7683 16.5584 19.2474 15.5071 19.8318C14.4801 20.404 13.56 20.9976 12.7223 21.5912C10.4564 18.866 4.7557 18.4112 5.48958 20.5307C6.15638 22.4518 7.13451 24.5575 7.58919 25.8057C5.87718 27.2492 4.29173 28.3692 2.21048 28.7568C0.309214 29.1108 -0.255337 29.6143 0.100229 31.4729L0.887631 37.6909C0.887631 37.6909 3.10472 38.9711 3.89056 39.4075C5.62396 40.3642 9.03431 42.4532 14.0758 44.0065L15.9863 50H20.7684V45.4834C22.6773 45.7489 24.7327 45.9046 26.936 45.9046C28.0804 45.9046 29.1546 45.8283 30.1662 45.6833V50H34.9468L37.1685 43.0358C42.4557 39.3005 43.7603 32.614 41.8926 27.243C41.6042 26.4159 41.2395 25.6347 40.8108 24.8931C41.5234 24.6306 42.207 24.2888 42.7945 23.8493C43.2339 23.5227 43.62 23.1397 43.9129 22.6912C43.9435 22.647 43.9709 22.6042 43.9984 22.5585C44.0442 22.5432 44.0914 22.531 44.1372 22.5142C44.6896 22.3205 45.2237 21.9634 45.6921 21.4416C46.1621 20.9213 46.571 20.2361 46.8976 19.368C47.0257 19.0262 46.8533 18.6432 46.5115 18.515ZM8.09593 32.0556C7.39095 32.0556 6.82025 31.4849 6.82025 30.78C6.82025 30.0765 7.39095 29.5043 8.09593 29.5043C8.80091 29.5043 9.37162 30.0765 9.37162 30.78C9.37152 31.4849 8.80091 32.0556 8.09593 32.0556ZM43.1255 21.0724C43.1163 21.1792 43.0995 21.2799 43.0737 21.3806C43.0615 21.3806 43.0477 21.3806 43.0355 21.3806C42.77 21.3806 42.5076 21.3287 42.2634 21.231C41.8972 21.0876 41.5752 20.8465 41.3571 20.5779C41.2502 20.4436 41.1663 20.3032 41.116 20.1689C41.0625 20.0347 41.0366 19.9064 41.0366 19.7905C41.0366 19.7417 41.0411 19.6944 41.0488 19.6486C41.0686 19.5494 41.1022 19.4671 41.154 19.3847C41.2288 19.2686 41.3448 19.168 41.4898 19.0917C41.6332 19.0184 41.8041 18.9757 41.972 18.9757C42.1109 18.9757 42.2451 19.0031 42.3718 19.0581C42.4664 19.0993 42.5549 19.1557 42.6404 19.232C42.767 19.348 42.8861 19.5128 42.9791 19.7569C43.0722 19.9995 43.1363 20.3246 43.1363 20.7473C43.1363 20.848 43.1317 20.9595 43.1255 21.0724Z" fill="#EF9B08"/>
<path d="M22.8024 7.00527C22.8024 7.14414 22.7932 7.22959 22.9382 7.25859C22.9504 7.26162 22.9688 7.26475 22.9932 7.26621C23.016 7.2708 23.3014 7.28144 23.3655 7.29062C23.4632 7.30439 23.5334 7.35469 23.5334 7.48594V10.9985C23.5334 11.1068 23.48 11.2152 23.3655 11.2152C23.3015 11.2152 23.0161 11.2336 22.9932 11.2366C22.9688 11.2412 22.9504 11.2442 22.9382 11.2458C22.7933 11.2764 22.8024 11.3618 22.8024 11.5021V12.2224H23.5332H24.0993V13.0128H24.8119V12.2224H25.4559V13.0128H26.1685V12.2163C26.4324 12.2025 26.7148 12.1645 26.9391 12.0942C27.2244 12.0058 27.3907 11.8883 27.5845 11.7341C27.7814 11.5814 27.9293 11.3983 28.0316 11.1878C28.1338 10.9772 28.1826 10.7483 28.1826 10.498C28.1826 9.80986 27.7936 9.33838 26.9573 9.19189C27.2305 9.08506 27.5372 8.77685 27.6287 8.67002C27.7203 8.55713 27.789 8.43965 27.8332 8.31602C27.876 8.18935 27.8973 8.05664 27.8973 7.91924C27.8973 7.67812 27.8545 7.46143 27.766 7.2707C27.679 7.07695 27.5357 6.92275 27.354 6.77783C27.0275 6.52451 26.5544 6.40547 26.1684 6.37197V5.54795H25.4558V6.36123L24.8118 6.35967V5.54785H24.0992V6.35811H23.5331H22.8023V7.00527H22.8024ZM26.5087 10.4828C26.5087 10.5759 26.4935 10.6659 26.4645 10.7483C26.4339 10.8338 26.3851 10.904 26.3164 10.9665C26.2478 11.0306 26.1577 11.0794 26.0433 11.1176C25.9319 11.1558 25.79 11.1726 25.6236 11.1726H24.876V9.85117H25.6191C25.7793 9.85117 25.9151 9.86494 26.0265 9.89395C26.1379 9.92295 26.2294 9.96416 26.3012 10.019C26.3729 10.0755 26.4248 10.1427 26.4599 10.2189C26.4934 10.2967 26.5087 10.3866 26.5087 10.4828ZM24.85 7.39746H25.4283C25.732 7.39746 25.9548 7.44629 26.0982 7.54697C26.2416 7.64619 26.3133 7.81396 26.3133 8.04746C26.3133 8.2748 26.2339 8.44111 26.0752 8.54639C25.9165 8.64863 25.683 8.70205 25.3778 8.70205H24.8499L24.85 7.39746Z" fill="#EF9B08"/>
<path d="M25.4939 18.5593C30.6179 18.5593 34.7728 14.4059 34.7728 9.28037C34.7728 4.15654 30.6179 0 25.4939 0C20.3685 0 16.2136 4.15654 16.2136 9.28037C16.2136 14.4059 20.3685 18.5593 25.4939 18.5593ZM25.4939 1.45264C29.8106 1.45264 33.3217 4.96367 33.3217 9.28037C33.3217 13.5956 29.8106 17.1097 25.4939 17.1097C21.1757 17.1097 17.6646 13.5956 17.6646 9.28037C17.6646 4.96367 21.1757 1.45264 25.4939 1.45264Z" fill="#EF9B08"/>
<path d="M24.6608 3.09142L24.699 3.08839C24.9599 3.0548 25.2269 3.03956 25.494 3.03956C25.5657 3.03956 25.6375 3.03956 25.7107 3.04259H25.7199C25.8756 3.04259 26.0037 2.91896 26.0083 2.76339C26.0159 2.60314 25.8892 2.46886 25.7291 2.46583L25.7016 2.46281H25.7001H25.6971H25.694H25.691H25.6894H25.6879H25.6833H25.6803C25.6375 2.46281 25.5948 2.45978 25.5506 2.45978H25.5444H25.5429H25.5398H25.5383H25.5352H25.5337H25.5306H25.5276H25.5261H25.523H25.5215H25.5199H25.5183H25.5168H25.5152H25.5122H25.5106H25.5091H25.506H25.503H25.5014H25.4999H25.4983H25.4968H25.4937H25.4891H25.4861H25.4846H25.483H25.48H25.4784H25.4768H25.4753H25.4722H25.4707H25.4691H25.4676H25.4645H25.463H25.4614H25.4584H25.4568H25.4553H25.4537H25.4507H25.4476H25.4446H25.443H25.4415H25.4369H25.4353H25.4338H25.4307H25.4292H25.4276H25.4246H25.423H25.4215H25.4184H25.4169H25.4138H25.4123H25.4107H25.4092H25.4076H25.4046H25.403H25.4H25.3984H25.3954H25.3938H25.3923H25.3907H25.3877H25.3861H25.3845H25.383H25.3814H25.3799H25.3783H25.3753H25.3737H25.3707H25.3691H25.3676H25.366H25.3644H25.3614L25.3584 2.46281H25.3538H25.3508H25.3492H25.3476H25.3461H25.3445H25.3415H25.3385H25.3369H25.3339H25.3323H25.3307H25.3277H25.3262H25.3246H25.323H25.32H25.3184H25.3169H25.3138H25.3123H25.3107H25.3092H25.3061H25.3031H25.3001H25.2985H25.2955H25.2925H25.2894H25.2848H25.2833H25.2817H25.2787H25.2771H25.2756H25.2725H25.271L25.2694 2.46583H25.2679H25.2648H25.2633H25.2617H25.2587H25.2571H25.2555H25.251H25.2494H25.2464H25.2448H25.2432H25.2417H25.2401H25.2371H25.2341H25.2295H25.2279H25.2233H25.2218H25.2202H25.2172H25.2156H25.214H25.2095H25.2079H25.2063H25.2033H25.2003H25.1957H25.1941H25.1926H25.1895H25.188H25.1864H25.1848H25.1818H25.1803H25.1787H25.1771H25.1756L25.1725 2.46886H25.1679H25.1664H25.1648H25.1633H25.1617H25.1587H25.1556H25.1541H25.1511H25.1495H25.1479H25.1418H25.1387H25.1342H25.128H25.125H25.1234H25.1219H25.1142L25.1112 2.47042H25.1096H25.1081H25.1005H25.0974H25.0959H25.0943H25.0867H25.0837H25.0821H25.0805L25.0729 2.47198H25.0699H25.0669H25.0593H25.0562L25.0456 2.47501L25.0426 2.47657H25.0395H25.0319H25.0289H25.0151C24.8824 2.48419 24.7526 2.49796 24.6229 2.51476C24.4642 2.53458 24.3513 2.68107 24.3726 2.83829C24.3923 2.98468 24.5174 3.09142 24.6608 3.09142Z" fill="#EF9B08"/>
<path d="M21.9478 4.08636C22.0028 4.08636 22.0561 4.06957 22.105 4.0391C22.3277 3.89418 22.5612 3.76293 22.7992 3.65004C22.9427 3.58138 23.0037 3.40892 22.935 3.26244C22.8846 3.15863 22.7809 3.0976 22.6741 3.0976C22.6299 3.0976 22.5886 3.10677 22.5474 3.12504C22.4498 3.17386 22.3537 3.22426 22.2575 3.27611L22.2391 3.28529L22.2361 3.28685L22.23 3.28988H22.2269L22.2223 3.29291H22.2208L22.2192 3.29594H22.2177L22.2146 3.29896L22.2116 3.30052L22.21 3.30209H22.2085L22.2069 3.30365H22.2053L22.2038 3.30521H22.2022L22.1992 3.30677H22.1976L22.1961 3.30834H22.1945L22.1929 3.31136H22.1914H22.1898L22.1883 3.31293V3.31449H22.1852L22.1837 3.31605H22.1821L22.1805 3.31761H22.179H22.1774H22.1759L22.1752 3.32035H22.1736H22.172H22.1705V3.32338H22.1689L22.1643 3.3264H22.1628L22.1597 3.32943L22.1552 3.33246H22.1521H22.1506L22.1444 3.33861H22.1428L22.1337 3.3432C22.0162 3.41039 21.9033 3.47904 21.7888 3.55228C21.6546 3.63929 21.6164 3.81781 21.7034 3.95355C21.7601 4.039 21.8516 4.08636 21.9478 4.08636Z" fill="#EF9B08"/>
<path d="M23.434 15.1734C23.1853 15.0879 22.9381 14.9841 22.7016 14.8652C22.6604 14.8438 22.6146 14.8346 22.5719 14.8346C22.4666 14.8346 22.3628 14.8926 22.3125 14.9963C22.2409 15.1367 22.2988 15.3121 22.4422 15.3839C22.5307 15.4267 22.6207 15.4694 22.7108 15.5121L22.72 15.5152H22.7215L22.7291 15.5198H22.7307H22.7323L22.7369 15.5213L22.7384 15.5243H22.74H22.7415H22.7431L22.7461 15.5274H22.7477H22.7493L22.7508 15.5304H22.7524H22.7539H22.7585L22.7601 15.532H22.7617L22.7647 15.5335L22.7677 15.5351V15.5366H22.7693H22.7708L22.7724 15.5397H22.774H22.777H22.7786H22.7801L22.7817 15.5412L22.7832 15.5428H22.7848L22.7878 15.5444L22.7894 15.5459H22.791H22.7925L22.7941 15.5475L22.7971 15.549H22.7987H22.8002V15.5521H22.8033L22.8079 15.5536H22.8109V15.5552H22.8139L22.8185 15.5582H22.8201H22.8216L22.8292 15.5613H22.8308L22.8324 15.5643H22.8354L22.8384 15.5673H22.8414L22.8445 15.5689L22.8506 15.5704L22.8537 15.572L22.8598 15.575L22.8628 15.5766L22.869 15.5796L22.8705 15.5812H22.8721H22.8737L22.8798 15.5842H22.8814L22.892 15.5888H22.8936L22.9012 15.5918L22.9042 15.5948L22.9119 15.5964L22.9134 15.598L22.921 15.5995L22.9226 15.6011L22.9272 15.6027L22.9333 15.6072H22.9349L22.9425 15.6088L22.9441 15.6104H22.9456L22.9518 15.6134L22.9548 15.615L22.9624 15.618H22.964L22.9702 15.621L22.9717 15.6226H22.9747H22.9763H22.9779L22.984 15.6256L22.9856 15.6272H22.9886L22.9932 15.6287L22.9948 15.6303H22.9963L22.9979 15.6319L22.9995 15.6334H23.0025L23.004 15.635H23.0056H23.0086L23.0102 15.6365H23.0132V15.6381H23.0163H23.0178H23.0194L23.0209 15.6411H23.0225H23.0241L23.0256 15.6427H23.0272H23.0302L23.0332 15.6457H23.0348V15.6473H23.0378H23.0394L23.0424 15.6503H23.044H23.0455H23.0471H23.0487H23.0502L23.0533 15.6533L23.0548 15.6549H23.0564H23.058H23.0595L23.0611 15.6565H23.0626L23.0657 15.658H23.0672L23.0688 15.6596H23.0718L23.0748 15.6612L23.0794 15.6627L23.081 15.6643L23.0856 15.6658H23.0886H23.0902L23.0978 15.6704H23.1008C23.1481 15.6888 23.1969 15.7055 23.2457 15.7239C23.2763 15.733 23.3098 15.7391 23.3404 15.7391C23.4609 15.7391 23.5723 15.6658 23.6151 15.5438C23.6645 15.3931 23.5851 15.2268 23.434 15.1734Z" fill="#EF9B08"/>
<path d="M20.3365 13.0005C20.2755 13.0005 20.2114 13.0188 20.158 13.0615C20.0314 13.1576 20.01 13.3393 20.1076 13.4674C20.1595 13.536 20.2145 13.6017 20.2694 13.6673L20.2739 13.6734L20.2755 13.675L20.2801 13.6812H20.2817V13.6842H20.2832V13.6857L20.2863 13.6873L20.2878 13.6889V13.6904H20.2894L20.2909 13.6935V13.695H20.294L20.2955 13.6966V13.6996L20.2971 13.7012L20.2987 13.7027L20.3017 13.7058V13.7073H20.3032L20.3048 13.7104H20.3064L20.3094 13.7134V13.7149L20.311 13.7165L20.3155 13.7211V13.7227L20.3171 13.7242L20.3217 13.7272L20.3233 13.7303C20.4393 13.8646 20.5598 13.9928 20.6849 14.1179C20.7413 14.1759 20.8146 14.2033 20.8878 14.2033C20.9641 14.2033 21.0389 14.1759 21.0938 14.1179C21.2067 14.0034 21.2067 13.8219 21.0922 13.7074C20.9061 13.5213 20.7276 13.3214 20.5657 13.1123C20.5089 13.0371 20.422 13.0005 20.3365 13.0005Z" fill="#EF9B08"/>
<path d="M18.9968 8.88976C19.1433 8.88976 19.27 8.77989 19.2852 8.63038C19.3126 8.36788 19.3569 8.10245 19.4179 7.84611C19.4545 7.69044 19.3569 7.53331 19.2012 7.49816L19.1356 7.49054C19.0029 7.49054 18.8853 7.58058 18.8533 7.71329C18.7876 7.99249 18.7388 8.27941 18.7068 8.56935C18.6916 8.72804 18.8075 8.87296 18.9677 8.88976H18.9968Z" fill="#EF9B08"/>
<path d="M20.6326 5.36504C20.7333 5.24297 20.7134 5.0583 20.5883 4.95762C20.5349 4.91338 20.4709 4.89502 20.4068 4.89502C20.3229 4.89502 20.2389 4.93008 20.1825 5.00186C20.1337 5.05986 20.0879 5.11934 20.0436 5.18037L20.0375 5.18652V5.18809H20.0359L20.0297 5.19424V5.19727L20.0236 5.20342L20.0174 5.2126L20.0113 5.22021L19.9991 5.23545C19.9228 5.34229 19.8496 5.44756 19.7778 5.55439L19.7732 5.56357L19.7716 5.56514L19.7686 5.56973V5.57275H19.7656V5.57578L19.7626 5.57881V5.58037H19.761L19.7594 5.58193V5.58496L19.7564 5.58799V5.58955L19.7548 5.59111L19.7533 5.59268V5.59424L19.7517 5.59727L19.7502 5.60029L19.7486 5.60186H19.747L19.7455 5.60645H19.7439V5.60801L19.7423 5.6126L19.7415 5.61523L19.7384 5.6168V5.61836L19.7323 5.62451C19.7155 5.65508 19.6972 5.68398 19.6789 5.71299C19.595 5.85029 19.6377 6.02734 19.7735 6.10977C19.8223 6.14033 19.8742 6.15254 19.9261 6.15254C20.0238 6.15254 20.1184 6.10527 20.1733 6.0167C20.3106 5.79072 20.4663 5.57256 20.6326 5.36504Z" fill="#EF9B08"/>
<path d="M19.3935 10.6109C19.3645 10.4736 19.244 10.382 19.1097 10.382L19.0486 10.3882C18.893 10.4232 18.7939 10.5759 18.8259 10.733C18.8885 11.0199 18.9678 11.2991 19.0654 11.5707C19.1082 11.6897 19.2195 11.7614 19.3386 11.7614C19.3706 11.7614 19.4042 11.7568 19.4362 11.7446C19.5873 11.6896 19.6636 11.5265 19.6117 11.3738C19.5232 11.1267 19.4499 10.8673 19.3935 10.6109Z" fill="#EF9B08"/>
<path d="M28.0895 14.9582C27.9446 15.0254 27.8804 15.1977 27.946 15.3442C27.9949 15.448 28.1017 15.5121 28.21 15.5121C28.2512 15.5121 28.2924 15.5029 28.3321 15.4877C28.4908 15.4114 28.6479 15.332 28.8021 15.2481L28.8051 15.2465L28.8113 15.2435L28.8128 15.2405L28.819 15.2375L28.8236 15.2359L28.8251 15.2343L28.8282 15.2313H28.8312L28.8328 15.2297L28.8343 15.2282L28.8373 15.2266H28.8389L28.8405 15.2251H28.842H28.8436L28.8466 15.222H28.8496H28.8512L28.8528 15.219L28.8574 15.216H28.8589V15.2144H28.8605H28.862L28.8666 15.2114L28.8682 15.2098L28.8712 15.2083H28.8728L28.8774 15.2037L28.8789 15.2021C28.9537 15.1609 29.0254 15.1182 29.0971 15.0739C29.2329 14.9884 29.2756 14.8099 29.1917 14.6741C29.1337 14.5871 29.0407 14.5352 28.943 14.5352C28.8911 14.5352 28.8392 14.5505 28.7904 14.581C28.5656 14.7216 28.329 14.8499 28.0895 14.9582Z" fill="#EF9B08"/>
<path d="M30.7552 12.6373C30.6117 12.8601 30.4546 13.0768 30.2852 13.2813C30.1814 13.4033 30.1997 13.5864 30.3218 13.6871C30.3768 13.7344 30.4423 13.7558 30.5079 13.7558C30.5904 13.7558 30.6728 13.7207 30.7307 13.6505C30.8802 13.4704 31.0206 13.2843 31.1519 13.089H31.1534V13.0859H31.155L31.158 13.0829V13.0799L31.1596 13.0783L31.1626 13.0753L31.1642 13.0737V13.0722L31.1657 13.0692L31.1673 13.0676L31.1703 13.0646V13.063V13.0614H31.1719V13.0584H31.1735L31.175 13.0554H31.1766L31.1781 13.0508L31.1797 13.0492L31.1813 13.0477L31.1828 13.0461H31.1844V13.0431L31.1874 13.0369H31.189L31.1905 13.0354V13.0338L31.1936 13.0292L31.1951 13.0276L31.1967 13.0246L31.2013 13.0185L31.2441 12.9483C31.3311 12.817 31.2913 12.6369 31.157 12.55C31.1082 12.518 31.0532 12.5042 30.9999 12.5042C30.9047 12.5046 30.8116 12.5519 30.7552 12.6373Z" fill="#EF9B08"/>
<path d="M31.6143 8.05662C31.6417 8.19548 31.7623 8.29158 31.8981 8.29158L31.9545 8.28542C32.1132 8.25183 32.2139 8.10232 32.1834 7.94519L32.1774 7.91013V7.90857L32.1758 7.90701V7.90398L32.1728 7.89939V7.89636V7.88874H32.1712V7.88416V7.88259V7.88103V7.87644H32.1697V7.87341V7.87185V7.87029L32.1666 7.86872V7.8657V7.86414V7.8613H32.1651V7.85671V7.85515V7.85359V7.85203L32.1635 7.849V7.84744L32.1619 7.84285V7.83982V7.83826V7.83689L32.1589 7.83386V7.83084V7.82781V7.82624V7.82322L32.1574 7.82166V7.81706V7.8155L32.1558 7.81394V7.81248V7.80632L32.1542 7.8033L32.1512 7.79412V7.78806L32.1496 7.78503V7.78201H32.1481L32.145 7.7698L32.1435 7.75759C32.1099 7.60955 32.0702 7.4616 32.0275 7.31511L32.0229 7.30447L32.0167 7.28464V7.28308L32.0137 7.27087L32.0107 7.26169L32.0091 7.25867L32.0061 7.24949L32.0031 7.23884V7.23582H32.0015L31.9999 7.22966L31.9988 7.22654L31.9972 7.21892L31.9956 7.21589V7.2113V7.20974L31.9926 7.20671V7.20369V7.20212L31.991 7.20056L31.9895 7.19753V7.19597V7.19294L31.9879 7.19138V7.18982V7.18826V7.18523L31.9864 7.18367V7.18064H31.9848L31.9832 7.17761L31.9817 7.17458V7.17302V7.17146V7.1699V7.16833H31.9801V7.16375H31.9785V7.16218V7.16062L31.977 7.15906V7.15749L31.9754 7.15593V7.1533L31.9739 7.15027V7.14724V7.14421V7.14265L31.9723 7.14109H31.9707V7.13806L31.9692 7.13503V7.13347L31.9676 7.13044V7.12888L31.966 7.12585L31.963 7.11667H31.9615V7.11365L31.9599 7.10749V7.10447C31.9187 6.9824 31.8042 6.90613 31.6852 6.90613C31.6546 6.90613 31.6211 6.91072 31.5921 6.92292C31.4395 6.97332 31.3586 7.13806 31.4075 7.28914C31.4952 7.53933 31.5624 7.79871 31.6143 8.05662Z" fill="#EF9B08"/>
<path d="M26.2126 15.4847H26.1806C25.9532 15.5091 25.7228 15.5213 25.494 15.5213C25.4573 15.5213 25.4207 15.5213 25.3841 15.5213H25.3795C25.2224 15.5213 25.0926 15.6495 25.0911 15.8067C25.0865 15.9669 25.2148 16.0981 25.3749 16.1012C25.4039 16.1012 25.4359 16.1012 25.4649 16.1012H25.468H25.4726H25.4741H25.4757H25.4773H25.4788H25.4818H25.4834H25.485H25.4865H25.4896H25.4941H25.4972H25.4987H25.5003H25.5019H25.5034H25.5065H25.5095H25.511H25.5141H25.5171H25.5187H25.5202H25.5233H25.5248H25.5264H25.5279H25.5295H25.5341H25.5357H25.5372H25.5388H25.5403H25.5419H25.5449H25.5465H25.5481H25.5511H25.5526H25.5557H25.5572H25.5588H25.5618H25.5634H25.565H25.5665H25.5681H25.5742H25.5758H25.5774H25.5789H25.5805H25.5835H25.5851H25.5866H25.5882H25.5898H25.5928H25.5943H25.5959H25.5989H25.6005H25.6035H25.6051H25.6127H25.6143H25.6158H25.6189H25.6204H25.622H25.625H25.6266H25.6281H25.6297H25.6313H25.6343H25.6358H25.6374H25.639H25.6405H25.6436H25.6542H25.6572H25.6618H25.6634H25.6664H25.668H25.6695H25.6711H25.6757H25.6773H25.6788L25.7032 16.0982H25.7048H25.7078C25.8894 16.0951 26.068 16.0798 26.2449 16.0615C26.4052 16.0447 26.5211 15.9013 26.5028 15.7411C26.4843 15.5945 26.3591 15.4847 26.2126 15.4847Z" fill="#EF9B08"/>
<path d="M31.9759 9.784C31.831 9.784 31.7073 9.89386 31.6875 10.0403C31.657 10.3013 31.6081 10.5637 31.5426 10.8232C31.503 10.9758 31.5976 11.1329 31.7531 11.1726L31.8248 11.1832C31.9545 11.1832 32.072 11.0962 32.1056 10.9635C32.1208 10.9055 32.1346 10.846 32.1468 10.788V10.7864L32.1484 10.7849L32.1499 10.7787V10.7757V10.7741V10.7726H32.1515V10.768H32.1531V10.7664V10.7634V10.7604V10.7573H32.1546L32.1562 10.7558V10.7542V10.7512V10.7482H32.1577V10.7436V10.7405V10.739L32.1593 10.7359V10.7298V10.7282L32.1623 10.7267V10.7236L32.1639 10.7175V10.7145L32.1655 10.7038C32.2082 10.5069 32.2403 10.3102 32.2661 10.1087C32.2829 9.95001 32.1715 9.80509 32.0128 9.78673L31.9759 9.784Z" fill="#EF9B08"/>
<path d="M27.6531 3.42255C27.9018 3.51561 28.1475 3.62245 28.3809 3.74608C28.4237 3.76893 28.4694 3.78114 28.5152 3.78114C28.619 3.78114 28.7197 3.72167 28.7716 3.62245C28.8464 3.48055 28.7914 3.30663 28.6495 3.23339C28.474 3.14032 28.2925 3.05487 28.1094 2.98007L28.1002 2.97548H28.0986L28.0956 2.97391L28.0894 2.97235L28.0879 2.97079L28.0817 2.96923L28.0771 2.9662L28.068 2.96317L28.0588 2.96014V2.95858L28.0558 2.95702L28.0481 2.95399H28.0466L28.039 2.95096V2.94794H28.0359L28.0298 2.94637H28.0282H28.0266L28.016 2.94178L28.0068 2.93876V2.93573C27.9564 2.91737 27.9046 2.89755 27.8542 2.87928C27.8206 2.86708 27.787 2.86249 27.755 2.86249C27.6359 2.86249 27.5246 2.93417 27.4818 3.05175C27.4273 3.20126 27.5036 3.36913 27.6531 3.42255Z" fill="#EF9B08"/>
<path d="M30.4867 5.53595C30.5447 5.61222 30.6301 5.65197 30.7186 5.65197C30.7797 5.65197 30.8407 5.63361 30.8925 5.59396C31.0208 5.4963 31.0466 5.31622 30.9505 5.1881C30.8529 5.05841 30.7506 4.93175 30.6454 4.80968L30.6392 4.80353L30.6377 4.80197L30.6331 4.79738L30.6315 4.79435L30.6299 4.79279L30.6269 4.78976H30.6254L30.6238 4.78673L30.6225 4.78517L30.6195 4.78214L30.6179 4.77911L30.6164 4.77755L30.6148 4.77452H30.6118V4.77296V4.7714L30.6102 4.76984V4.76681H30.6072L30.6056 4.76525H30.6041V4.76222H30.6025V4.76075L30.5995 4.75919V4.75763L30.5979 4.75607L30.5963 4.7545L30.5933 4.75148H30.5918L30.5902 4.74845L30.5886 4.74689L30.584 4.74386V4.7423L30.5825 4.74073V4.73917L30.5795 4.73302H30.5779L30.5763 4.73146L30.5717 4.72687L30.5687 4.72531V4.72374L30.5657 4.71915H30.5641L30.5626 4.71759V4.71603L30.558 4.71144H30.5549V4.70841L30.5488 4.70079L30.5426 4.69318H30.5411L30.5273 4.67941C30.4815 4.62902 30.4327 4.57872 30.3854 4.52677C30.3274 4.4673 30.2527 4.43829 30.1763 4.43829C30.1031 4.43829 30.0314 4.46573 29.9749 4.52218C29.8604 4.63204 29.8574 4.81671 29.9687 4.93116C30.1541 5.12091 30.328 5.32531 30.4867 5.53595Z" fill="#EF9B08"/>
</svg>
