<svg width="45" height="21" viewBox="0 0 45 21" fill="none" xmlns="http://www.w3.org/2000/svg">
<g clip-path="url(#clip0_309_646)">
<path fill-rule="evenodd" clip-rule="evenodd" d="M13.9613 16.7936C15.8028 17.1927 17.6504 17.6646 19.6473 20.1436C19.8247 20.3636 19.5538 20.5841 19.3503 20.4064C17.3181 18.6368 15.482 18.0664 13.7898 18.0664C11.9061 18.0664 10.6228 18.3136 9.32933 18.3136C4.45313 18.3136 0.5 14.4273 0.5 9.63365C0.5 4.84092 4.45313 0.954559 9.32933 0.954559C14.206 0.954559 18.1587 4.84047 18.1587 9.63365C18.161 11.2042 17.7287 12.7454 16.9088 14.0891C16.8827 14.1314 16.8171 14.1164 16.8107 14.0677C16.5078 11.935 15.1818 10.7596 13.2527 10.4168C13.0854 10.3868 13.0542 10.2855 13.2756 10.2668C13.8641 10.2168 14.7028 10.2255 15.1291 10.3009C15.1547 10.0823 15.1657 9.8591 15.1657 9.63365C15.1657 6.46547 12.5528 3.89638 9.32933 3.89638C6.10588 3.89638 3.49292 6.46501 3.49292 9.63365C3.49292 12.8027 6.10588 15.3714 9.32933 15.3714C9.421 15.3714 9.51267 15.3723 9.60342 15.3682C9.51394 14.8561 9.47724 14.3363 9.49387 13.8168C9.50808 13.4668 9.5805 13.4187 9.74138 13.6909C10.5485 15.0591 11.7076 16.3059 13.9608 16.7936H13.9613ZM13.8114 14.6641C14.0268 14.6641 14.2528 14.7532 14.4471 14.915C14.8399 15.2414 14.9595 15.6296 14.7514 15.9036C14.6359 16.0536 14.4489 16.1364 14.2243 16.1364C14.0043 16.1364 13.7798 16.0559 13.6239 15.9227C13.2664 15.6155 13.1615 15.1182 13.3948 14.8355C13.486 14.725 13.634 14.6641 13.8114 14.6641ZM15.7689 13.2441C16.0966 13.3659 16.2254 13.8586 16.2593 14.0859C16.3171 14.4664 16.1952 14.6236 16.0723 14.6236C15.9385 14.6236 15.7698 14.4696 15.5718 14.1655C15.3761 13.8655 15.3046 13.52 15.4013 13.3464C15.4655 13.2314 15.5998 13.1809 15.7689 13.2441ZM26.9431 7.67274C27.0146 7.46592 27.0545 7.24456 27.0545 7.01456C27.0545 5.96183 26.257 5.05456 25.1634 5.05456C24.0698 5.05456 23.2728 5.96183 23.2728 7.01456C23.2728 8.06729 24.0698 8.96183 25.1634 8.96183C25.4948 8.96183 25.7986 8.87865 26.0617 8.73456L25.3513 7.89456C25.3346 7.8748 25.3239 7.8507 25.3205 7.82511C25.3172 7.79952 25.3213 7.77352 25.3324 7.75018C25.3435 7.72684 25.3611 7.70714 25.3831 7.69342C25.4052 7.67969 25.4307 7.67252 25.4567 7.67274H26.9431ZM28.176 8.91547L29.2769 10.155C29.3544 10.2386 29.2907 10.3741 29.1747 10.3741H27.5522C27.5196 10.3741 27.4874 10.3671 27.4579 10.3534C27.4283 10.3397 27.4022 10.3198 27.3813 10.295L27.1063 9.97001C26.5269 10.3398 25.8523 10.5361 25.1634 10.5355C23.1884 10.5355 21.582 8.95592 21.582 7.01456C21.582 5.0732 23.1884 3.49365 25.1634 3.49365C27.1388 3.49365 28.7453 5.0732 28.7453 7.01456C28.7453 7.71456 28.5353 8.36638 28.176 8.91547ZM44.2649 3.65547C44.3625 3.65547 44.4413 3.7332 44.4413 3.8291V10.2C44.4413 10.2955 44.3625 10.3732 44.2649 10.3732H42.9417C42.8952 10.3734 42.8505 10.3554 42.8174 10.323C42.7844 10.2906 42.7656 10.2466 42.7652 10.2005V3.82865C42.7652 3.73274 42.844 3.65501 42.9417 3.65501H44.2653L44.2649 3.65547ZM31.5434 3.65547C31.641 3.65547 31.7194 3.7332 31.7194 3.8291V10.2C31.7194 10.2955 31.641 10.3732 31.5434 10.3732H30.2197C30.1732 10.3734 30.1286 10.3554 30.0955 10.323C30.0624 10.2906 30.0436 10.2466 30.0433 10.2005V3.82865C30.0433 3.73274 30.1221 3.65501 30.2197 3.65501L31.5434 3.65547ZM42.0369 3.65547C42.0933 3.65547 42.1469 3.68229 42.1799 3.72683C42.1962 3.74875 42.2069 3.77424 42.2112 3.80115C42.2154 3.82806 42.213 3.85558 42.2042 3.88138L40.028 10.2564C40.0161 10.2908 39.9936 10.3207 39.9637 10.3418C39.9337 10.3629 39.8979 10.3742 39.8612 10.3741H38.6851C38.6484 10.3743 38.6125 10.3631 38.5825 10.3421C38.5525 10.3211 38.5299 10.2913 38.5178 10.2568L37.2423 6.53229L35.9663 10.2568C35.9543 10.2912 35.9317 10.3209 35.9018 10.342C35.8719 10.363 35.8361 10.3742 35.7995 10.3741H34.6229C34.5862 10.3742 34.5504 10.3629 34.5205 10.3418C34.4905 10.3207 34.468 10.2908 34.4561 10.2564L32.2804 3.88183C32.2716 3.85603 32.2693 3.82852 32.2735 3.80162C32.2777 3.77471 32.2884 3.74922 32.3047 3.72729C32.3211 3.70502 32.3427 3.68692 32.3675 3.67444C32.3924 3.66197 32.4198 3.65547 32.4477 3.65547H33.929C34.0069 3.65547 34.0748 3.70547 34.0977 3.77729L35.2696 7.54274L36.558 3.77274C36.57 3.73824 36.5926 3.70833 36.6226 3.68721C36.6526 3.66609 36.6885 3.65483 36.7253 3.65501H37.7593C37.8349 3.65501 37.9023 3.70229 37.9261 3.77274L39.2145 7.54229L40.3869 3.77683C40.3982 3.7413 40.4207 3.7103 40.451 3.68837C40.4814 3.66645 40.518 3.65475 40.5556 3.65501L42.0369 3.65547Z" fill="#FF8C00"/>
<path fill-rule="evenodd" clip-rule="evenodd" d="M23.1797 15.2936C23.4891 15.2936 23.6637 15.1182 23.6637 14.8436C23.6637 14.565 23.4804 14.3804 23.171 14.3804H22.6476V15.2941L23.1797 15.2936ZM22.0852 12.7259H23.9864V13.2018H22.648V13.905H23.2668C23.8337 13.905 24.2352 14.265 24.2352 14.8436C24.2352 15.3923 23.8424 15.7695 23.2801 15.7695H22.0852V12.7259ZM25.4081 15.4054C25.7179 15.4054 25.9187 15.0963 25.9187 14.8309V14.7709H25.8224C25.5438 14.7709 25.0726 14.8091 25.0726 15.1182C25.0726 15.2636 25.1858 15.4054 25.4081 15.4054ZM25.8183 14.3977H25.9146V14.3677C25.9146 14.0804 25.7267 13.9818 25.4957 13.9818C25.2775 13.9818 25.0557 14.0718 24.8769 14.1923L24.6716 13.8018C24.8549 13.6563 25.2124 13.5318 25.5438 13.5318C26.1236 13.5318 26.4682 13.8491 26.4682 14.4023V15.7695H25.9535V15.5854C25.9535 15.4954 25.9668 15.4263 25.9668 15.4263H25.9577C25.8229 15.6582 25.5566 15.8209 25.2559 15.8209C24.8549 15.8209 24.5235 15.5641 24.5235 15.165C24.5235 14.5095 25.3256 14.3977 25.8183 14.3977ZM27.0311 13.5832H27.5847V14.4277H28.5358V13.5832H29.0894V15.7695H28.5362V14.8863H27.5852V15.7695H27.0315L27.0311 13.5832ZM29.6825 13.5832H30.2367V14.4195H30.5071L31.0479 13.5832H31.6625L30.9562 14.625V14.6336L31.7496 15.77H31.1089L30.5245 14.8823H30.2367V15.7695H29.6821V13.5832H29.6825Z" fill="#FF8C00"/>
</g>
<defs>
<clipPath id="clip0_309_646">
<rect width="44" height="20" fill="white" transform="translate(0.5 0.5)"/>
</clipPath>
</defs>
</svg>
