<svg width="74" height="45" viewBox="0 0 74 45" fill="none" xmlns="http://www.w3.org/2000/svg">
<path d="M61.597 0.184448H12.3713C10.5103 0.184448 9 2.06203 9 4.37937V40.8032C9 43.1205 10.5103 45 12.3713 45H61.597C63.4599 45 64.9702 43.1205 64.9702 40.8032V4.37937C64.9702 2.06203 63.4599 0.184448 61.597 0.184448ZM27.3265 41.8106H26.2687C25.9459 39.2384 22.7332 37.1106 18.9907 37.1124C15.2547 37.1106 12.6912 39.2374 13.5009 41.8106H12.4431C8.51588 29.2992 8.51588 15.8834 12.4431 3.37195H13.1754C12.7559 4.74984 12.3816 6.14111 12.0532 7.54353H26.1007C26.2444 6.14398 26.4086 4.7519 26.5914 3.37195H27.3256C25.7799 15.8624 25.7799 29.3192 27.3265 41.8106ZM44.4263 41.8106H43.3703C43.6147 39.2384 40.722 37.1106 36.9851 37.1124C33.2463 37.1106 30.3563 39.2374 30.5998 41.8106H29.5429C28.3526 29.3192 28.3526 15.8624 29.5429 3.37195H30.2771C30.1577 4.7519 30.0532 6.14398 29.9608 7.54353H44.0084C43.916 6.14398 43.8097 4.7519 43.6922 3.37195H44.4254C45.6157 15.8624 45.6157 29.3192 44.4263 41.8106ZM61.5271 41.8106H60.4692C61.2789 39.2384 58.7136 37.1106 54.9776 37.1124C51.2369 37.1106 48.0205 39.2374 47.7015 41.8106H46.6437C48.1894 29.3192 48.1894 15.8624 46.6437 3.37195H47.3769C47.5606 4.7519 47.7248 6.14398 47.8666 7.54353H61.916C61.5874 6.14098 61.2125 4.7497 60.792 3.37195H61.5261C65.4541 15.8832 65.4544 29.2992 61.5271 41.8106Z" fill="#EF9B08"/>
<path d="M59.5914 17.8698C59.5196 17.9206 59.4469 17.9701 59.3732 18.0182C59.0616 17.796 58.5121 17.4282 57.4357 17.0584C56.7797 16.8369 56.0916 16.7259 55.3993 16.7298C54.0205 16.7298 52.7612 17.135 51.9142 17.4944C51.8339 17.4066 51.7362 17.3364 51.6273 17.2883C51.5184 17.2402 51.4007 17.2154 51.2817 17.2153H50.0187C49.5355 17.2153 49.1437 17.6195 49.1437 18.12V23.2952C49.1437 23.7957 49.5355 24.199 50.0187 24.199H51.2817C51.4725 24.197 51.6574 24.1328 51.8086 24.0162C51.9597 23.8997 52.0688 23.7371 52.1194 23.5529C52.2127 23.2308 52.4898 22.2542 54.4552 22.2542L54.5532 22.2552C51.9608 24.9712 51.4571 28.2259 51.4338 28.3855C51.4142 28.5138 51.4222 28.6447 51.4571 28.7696C51.492 28.8945 51.553 29.0106 51.6362 29.1101C51.7169 29.2077 51.8181 29.2864 51.9325 29.3406C52.047 29.3948 52.1719 29.4232 52.2985 29.4238H58.487C58.9711 29.4238 59.362 29.0195 59.362 28.5191C59.362 22.8779 62.5802 19.5616 62.8386 19.3057C62.9335 19.2195 63.0093 19.1142 63.061 18.9968C63.1128 18.8794 63.1393 18.7525 63.139 18.6242C63.139 18.1247 62.7491 17.7195 62.2659 17.7195H60.0737C59.9017 17.7209 59.7339 17.7732 59.5914 17.8698ZM58.4879 28.5209H52.2995C52.2995 28.5209 52.9142 24.3027 56.5989 21.652C56.5989 21.652 55.5998 21.3514 54.4552 21.3514C53.1829 21.3514 51.7304 21.723 51.2817 23.2971H50.0187V18.1219H51.2817V18.8128C51.2817 18.8128 53.1913 17.6345 55.3993 17.6345C55.9748 17.6345 56.5718 17.7148 57.1595 17.9174C58.8452 18.4991 59.0121 19.0098 59.3386 19.0098C59.4907 19.0098 59.6782 18.8968 60.0746 18.626H62.2631C62.2631 18.6251 58.4879 22.2085 58.4879 28.5209Z" fill="#EF9B08"/>
<path d="M43.1082 17.7204H40.9161C40.7437 17.7209 40.5755 17.7729 40.4329 17.8698C40.3611 17.9206 40.2883 17.9701 40.2146 18.0182C39.903 17.796 39.3536 17.4282 38.2771 17.0584C37.6211 16.8369 36.933 16.7259 36.2407 16.7298C34.862 16.7298 33.6026 17.135 32.7556 17.4944C32.6753 17.4066 32.5776 17.3364 32.4687 17.2883C32.3598 17.2402 32.2422 17.2154 32.1232 17.2153H30.8601C30.3769 17.2153 29.9851 17.6195 29.9851 18.12V23.2952C29.9851 23.7957 30.3769 24.199 30.8601 24.199H32.1232C32.3139 24.197 32.4989 24.1328 32.65 24.0162C32.8011 23.8997 32.9102 23.7371 32.9609 23.5529C33.0541 23.2308 33.3312 22.2542 35.2967 22.2542L35.3946 22.2552C32.8023 24.9712 32.2985 28.2259 32.2743 28.3855C32.2551 28.5138 32.2633 28.6447 32.2984 28.7696C32.3334 28.8945 32.3945 29.0105 32.4776 29.1101C32.5584 29.2077 32.6595 29.2864 32.774 29.3406C32.8884 29.3948 33.0133 29.4232 33.14 29.4238H39.3284C39.8125 29.4238 40.2034 29.0195 40.2034 28.5191C40.2034 22.8779 43.4217 19.5616 43.6801 19.3057C43.775 19.2195 43.8507 19.1142 43.9025 18.9968C43.9542 18.8794 43.9808 18.7525 43.9804 18.6242C43.9814 18.1256 43.5914 17.7204 43.1082 17.7204ZM39.3303 28.5209H33.1418C33.1418 28.5209 33.7566 24.3027 37.4413 21.652C37.4413 21.652 36.4422 21.3514 35.2976 21.3514C34.0252 21.3514 32.5728 21.723 32.1241 23.2971H30.861V18.1219H32.1241V18.8128C32.1241 18.8128 34.0336 17.6345 36.2416 17.6345C36.8172 17.6345 37.4142 17.7148 38.0019 17.9174C39.6875 18.4991 39.8545 19.0098 40.181 19.0098C40.3331 19.0098 40.5206 18.8968 40.917 18.626H43.1054C43.1054 18.6251 39.3303 22.2085 39.3303 28.5209Z" fill="#EF9B08"/>
<path d="M23.9506 17.7204H21.7584C21.5861 17.7209 21.4178 17.773 21.2752 17.8698C21.2323 17.9006 21.1409 17.9622 21.0569 18.0182C20.7453 17.796 20.1959 17.4282 19.1194 17.0584C18.4628 16.8368 17.7741 16.7257 17.0812 16.7298C15.7043 16.7298 14.4431 17.135 13.598 17.4944C13.5176 17.4066 13.4199 17.3364 13.3111 17.2883C13.2022 17.2403 13.0845 17.2154 12.9655 17.2153H11.7034C11.2202 17.2153 10.8284 17.6196 10.8284 18.12V23.2953C10.8284 23.7957 11.2202 24.199 11.7034 24.199H12.9664C13.1572 24.197 13.3421 24.1328 13.4933 24.0162C13.6444 23.8997 13.7535 23.7371 13.8041 23.5529C13.8955 23.2308 14.1745 22.2542 16.1399 22.2542L16.2379 22.2552C13.6455 24.9712 13.1418 28.2259 13.1175 28.3856C13.0984 28.5138 13.1066 28.6447 13.1416 28.7696C13.1767 28.8945 13.2378 29.0105 13.3209 29.1101C13.4016 29.2077 13.5028 29.2864 13.6172 29.3406C13.7317 29.3948 13.8566 29.4232 13.9832 29.4238H20.1717C20.6539 29.4238 21.0467 29.0195 21.0467 28.5191C21.0467 22.8779 24.2649 19.5616 24.5233 19.3057C24.6182 19.2195 24.694 19.1142 24.7457 18.9968C24.7975 18.8794 24.824 18.7525 24.8237 18.6242C24.8237 18.1256 24.4338 17.7204 23.9506 17.7204ZM20.1726 28.5209H13.9842C13.9842 28.5209 14.5989 24.3027 18.2836 21.652C18.2836 21.652 17.2845 21.3514 16.1399 21.3514C14.8675 21.3514 13.4151 21.723 12.9664 23.2971H11.7034V18.1219H12.9664V18.8128C12.9664 18.8128 14.8759 17.6345 17.0821 17.6345C17.6595 17.6345 18.2565 17.7148 18.8442 17.9174C20.5299 18.4991 20.6968 19.0098 21.0233 19.0098C21.1754 19.0098 21.3629 18.8968 21.7593 18.626H23.9478C23.9468 18.6251 20.1726 22.2085 20.1726 28.5209Z" fill="#EF9B08"/>
<rect x="64.7463" y="17.8866" width="5.67164" height="9.48595" fill="#EF9B08"/>
<ellipse cx="69.0373" cy="22.6296" rx="4.29104" ry="4.29482" fill="#EF9B08"/>
<ellipse cx="70.8581" cy="3.21884" rx="2.98507" ry="2.9877" fill="#EF9B08"/>
<rect x="69.2049" y="5.02783" width="3.46311" height="15.9889" fill="#EF9B08"/>
</svg>
