<svg width="40" height="41" viewBox="0 0 40 41" fill="none" xmlns="http://www.w3.org/2000/svg">
<path d="M39.8705 15.5721C39.572 14.6838 38.8031 14.0361 37.8774 13.8945L27.1031 12.248L22.2636 1.93819C21.8508 1.0594 20.9689 0.5 20 0.5C19.0304 0.5 18.1491 1.0594 17.7364 1.93819L12.8963 12.2487L2.12195 13.8951C1.19621 14.0367 0.427292 14.6838 0.129504 15.5727C-0.168283 16.4617 0.0564861 17.4408 0.71111 18.1125L8.5793 26.181L6.71575 37.5957C6.56209 38.5405 6.96274 39.4904 7.74435 40.0428C8.52533 40.5952 9.55647 40.6511 10.3965 40.1876L20.0006 34.8762L29.6047 40.1876C29.9838 40.3971 30.401 40.5 30.8162 40.5C31.3216 40.5 31.827 40.3463 32.2569 40.0428C33.0385 39.4911 33.4385 38.5411 33.2849 37.5957L31.4213 26.181L39.2901 18.1125C39.9435 17.4408 40.1683 16.4616 39.8705 15.5721Z" fill="#EF9B08"/>
</svg>
