<svg width="49" height="15" viewBox="0 0 49 15" fill="none" xmlns="http://www.w3.org/2000/svg">
<g clip-path="url(#clip0_309_668)">
<path d="M21.274 14.8306H17.3808L19.814 0.0738035H23.7076L21.274 14.8306ZM14.1056 0.0738035L10.394 10.2237L9.95478 8.03801L9.95518 8.0388L8.64518 1.40249C8.64518 1.40249 8.48678 0.0738035 6.79838 0.0738035H0.662378L0.590378 0.323672C0.590378 0.323672 2.46678 0.708934 4.66278 2.01038L8.04518 14.831H12.1016L18.2956 0.0738035H14.1056ZM44.7276 14.8306H48.3024L45.1856 0.073409H42.056C40.6108 0.073409 40.2588 1.17315 40.2588 1.17315L34.4524 14.8306H38.5108L39.3224 12.6387H44.2716L44.7276 14.8306ZM40.4436 9.61065L42.4892 4.08828L43.64 9.61065H40.4436ZM34.7568 3.62249L35.3124 0.45354C35.3124 0.45354 33.598 -0.18988 31.8108 -0.18988C29.8788 -0.18988 25.2908 0.643409 25.2908 4.69538C25.2908 8.50775 30.6756 8.55512 30.6756 10.5576C30.6756 12.5601 25.8456 12.2013 24.2516 10.9385L23.6728 14.252C23.6728 14.252 25.4112 15.0853 28.0672 15.0853C30.724 15.0853 34.732 13.7278 34.732 10.033C34.732 6.19617 29.2988 5.83894 29.2988 4.17078C29.2992 2.50223 33.0908 2.71657 34.7568 3.62249Z" fill="#2566AF"/>
<path d="M9.95518 8.03842L8.64518 1.40211C8.64518 1.40211 8.48678 0.0734253 6.79838 0.0734253H0.662378L0.590378 0.323293C0.590378 0.323293 3.53958 0.926451 6.36838 3.18632C9.07318 5.34632 9.95518 8.03842 9.95518 8.03842Z" fill="#E6A540"/>
</g>
<defs>
<clipPath id="clip0_309_668">
<rect width="48" height="15" fill="white" transform="translate(0.5)"/>
</clipPath>
</defs>
</svg>
