<svg width="60" height="15" viewBox="0 0 60 15" fill="none" xmlns="http://www.w3.org/2000/svg">
<g clip-path="url(#clip0_309_638)">
<path d="M11.9281 0.9375C8.4657 0.9375 5.6834 3.89062 5.6834 7.5C5.6834 11.1391 8.49309 14.0625 11.9273 14.0625C15.3615 14.0625 18.1737 11.1094 18.1737 7.5C18.1737 3.89062 15.3623 0.9375 11.9281 0.9375ZM11.9281 9.94606C10.6509 9.94606 9.60103 8.84225 9.60103 7.5C9.60103 6.15775 10.6509 5.05394 11.9281 5.05394C13.2054 5.05394 14.2556 6.15775 14.2556 7.5C14.227 8.84225 13.2054 9.94606 11.9281 9.94606Z" fill="#8B3FFD"/>
<path d="M5.6834 2.84412V12.3895H3.47084L0.632523 2.84412H5.6834Z" fill="#8B3FFD"/>
<path d="M52.6202 7.54024C52.6202 5.82305 51.3878 4.43399 49.6471 4.43399C47.9408 4.43399 46.7258 5.76968 46.7258 7.60499C46.7258 9.44949 47.9752 10.7944 49.7678 10.7944C50.9052 10.7944 51.8617 10.258 52.4563 9.16774L51.2501 8.57712C50.9658 9.12224 50.345 9.47662 49.7678 9.47662C49.0354 9.47662 48.191 8.89518 48.1391 8.08668H52.5771C52.6054 7.90605 52.6198 7.72331 52.6202 7.54024ZM48.1648 7.01524C48.2686 6.19755 48.8026 5.66162 49.6558 5.66162C50.5002 5.66162 51.0173 6.18662 51.0861 7.01524H48.1648Z" fill="#8B3FFD"/>
<path d="M36.0082 4.43268C34.2587 4.43268 33.018 5.75962 33.018 7.63124C33.018 9.48449 34.2587 10.7931 36.0256 10.7931C37.8008 10.7931 39.0415 9.48449 39.0415 7.65837C39.0415 5.77755 37.7664 4.43268 36.0082 4.43268ZM36.0256 9.40268C35.1463 9.40268 34.6035 8.7123 34.6035 7.63999C34.6035 6.54974 35.155 5.80468 36.0256 5.80468C36.9045 5.80468 37.456 6.54055 37.456 7.63999C37.456 8.72149 36.9132 9.40268 36.0256 9.40268Z" fill="#8B3FFD"/>
<path d="M29.7788 4.43443C29.0622 4.43443 28.5223 4.69256 27.9825 5.33262H27.8053C27.4426 4.75468 26.8509 4.43443 26.1869 4.43443C25.8554 4.43101 25.5279 4.51066 25.2313 4.66682C24.9348 4.82297 24.6776 5.05117 24.481 5.33262H24.3039L24.2951 5.32387V4.55912H22.8121V10.6596H24.4147V7.52012C24.4147 6.50643 24.8197 5.91056 25.5197 5.91056C26.1691 5.91056 26.5907 6.41762 26.5907 7.19112V10.6596H28.2016V7.52012C28.2016 6.51387 28.6066 5.91056 29.3153 5.91056C29.956 5.91056 30.3693 6.41762 30.3693 7.20031V10.6596H31.9806V6.99556C31.9806 5.40393 31.1706 4.43443 29.7788 4.43443Z" fill="#8B3FFD"/>
<path d="M56.1839 8.54386H56.0694C56.0694 8.43536 55.3706 6.50336 54.9125 5.30636L54.6262 4.5578H53.0116L55.3021 10.6797L54.3996 13.0125H56.003L59.3015 4.55999H57.6861L57.4226 5.20005L56.5292 7.53061C56.2773 8.18161 56.174 8.48349 56.1839 8.54386Z" fill="#8B3FFD"/>
<path d="M43.4862 4.43445C42.7691 4.43445 42.1533 4.76345 41.74 5.35057H41.5711L41.5545 5.34182V4.55914H40.0706V10.6596H41.6732V7.53807C41.6732 6.54232 42.1297 5.91932 42.8795 5.91932C43.5795 5.91932 44.0941 6.47057 44.0941 7.34207V10.6592H45.6967V6.97807C45.6967 5.48401 44.7688 4.43445 43.4862 4.43445Z" fill="#8B3FFD"/>
</g>
<defs>
<clipPath id="clip0_309_638">
<rect width="60" height="14" fill="white" transform="translate(0 0.5)"/>
</clipPath>
</defs>
</svg>
